<svg xmlns="http://www.w3.org/2000/svg" width="200" height="200" viewBox="0 0 200 200"><defs><style>.cls-1{fill:#4d4e50;}.cls-2{fill:#161616;}.cls-3{fill:#448d44;}.cls-4{fill:#cacbca;}.cls-5{fill:#545454;}.cls-6{fill:#282828;}</style></defs><g id="S"><path class="cls-1" d="M49.42,35.55l2.79,2.79a18.48,18.48,0,0,1,5.42,13.07v4.66c-14.37,0-16.42-8.21-16.42-8.21L26.85,64.28c0,6.15,6.15,9.15,6.15,9.15,2,23.51,8.12,35,8.12,35C47.19,132,33,134.05,33,134.05c20.52,47.19,68.75,56.36,68.75,56.36,44.11-9.3,66.69-54.31,66.69-54.31-6.16-4.11-12.32-14.37-5.25-29.12s7.3-34.5,7.3-34.5c4.1-2,6.16-8.2,6.16-8.2L160.23,47.86C154.07,58.12,145.86,54,145.86,54c-4.1-14.37,8.21-18.47,8.21-18.47-8.21-10.26-52.32-24.65-52.32-24.65Z"/><path class="cls-2" d="M101.76,191.46l-.21,0c-.48-.09-49-9.82-69.49-57l-.54-1.23,1.33-.19a10,10,0,0,0,6.33-4.48c2.88-4.37,3.21-11,1-19.79C39.49,107.46,34,96.2,32,74.07c-1.6-.93-6.21-4.11-6.21-9.79v-.39L41.73,45.71l.47,1.9c.08.29,2,7.06,14.4,7.42V51.41a17.35,17.35,0,0,0-5.11-12.34l-3.83-3.83,54-25.44.38.12c1.82.59,44.51,14.61,52.81,25l.92,1.14-1.39.47c-.46.16-11.07,3.91-7.68,16.75,1.62.6,7.74,2.21,12.63-5.94l.68-1.12L177.82,64l-.2.6c-.09.26-2.06,6.06-6.12,8.5-.1,3.48-.9,20.79-7.38,34.32-6.58,13.74-1.48,23.58,4.89,27.82l.75.51-.41.81c-.22.45-23.3,45.56-67.39,54.85ZM34.43,134.73c19.65,43.7,64,53.92,67.31,54.63,39.83-8.51,62.11-47,65.37-52.94-11.18-8.15-8.36-22.54-4.84-29.89,6.88-14.37,7.19-33.86,7.19-34.06v-.62l.56-.28c3-1.49,4.82-5.52,5.42-7l-15-15c-6.49,9.54-14.92,5.49-15,5.44l-.41-.2-.12-.43c-3.46-12.12,4.22-17.45,7.49-19.11C143,25.86,106,13.39,101.81,12L51.18,35.85l1.76,1.76a19.42,19.42,0,0,1,5.71,13.8v5.68h-1c-11.12,0-15.27-4.73-16.72-7.33l-13,14.89c.25,5.2,5.52,7.83,5.57,7.86l.52.25.05.58c2,23,7.95,34.46,8,34.58l.09.22c2.42,9.43,2,16.7-1.26,21.6A12.53,12.53,0,0,1,34.43,134.73Z"/><path class="cls-3" d="M45.31,64.28s-6.15,12.31,3.44,34.51.67,39.36.67,39.36c12.31,28.73,53.35,39,53.35,39,36.94-12.31,51.3-39,51.3-39s-10.26-10.26-.42-37.5,2.47-36.37,2.47-36.37-16.41,4.1-20.52-6.16,0-22.57,0-22.57a145.89,145.89,0,0,0-33.85-15.11S80.2,27.34,67.89,35.55c0,0,1.54,19.22-2.06,24.62C61.73,66.33,45.31,64.28,45.31,64.28Z"/><path class="cls-2" d="M102.81,178.21l-.29-.08c-.41-.1-41.68-10.71-54-39.58l-.2-.44.23-.43c.08-.17,8.57-17-.7-38.48-9.67-22.39-3.67-34.86-3.41-35.38l.32-.65.72.09c4.39.54,16.47.95,19.54-3.66,2.79-4.18,2.31-18.72,1.88-24l0-.6.5-.34c12.29-8.19,33.23-14.94,34.11-15.23l.29-.09.3.08a148.4,148.4,0,0,1,34.13,15.23l.68.43-.25.76c0,.12-3.93,12.09,0,21.87,3.72,9.32,19.16,5.58,19.32,5.54l.63-.16.41.51c.32.39,7.62,9.91-2.3,37.37-9.46,26.18.08,36.33.18,36.43l.53.54-.35.67c-.15.27-15,27.17-51.88,39.47Zm-52.26-40c11.65,26.37,48.56,36.92,52.19,37.9,32.82-11,47.68-33.81,50.08-37.8-2.06-2.63-8.88-13.74-.13-38,8.28-22.91,4.22-32.64,3-34.87-3.35.7-17.07,2.88-21-6.93-3.64-9.11-1.1-19.57-.26-22.5a147,147,0,0,0-32.63-14.49C99.18,22.36,80.29,28.7,69,36.07c.24,3.4,1.16,19.53-2.26,24.67-3.92,5.87-17.3,5-20.72,4.64-1,2.77-4.33,14.36,3.72,33C58.62,119.06,51.92,135.25,50.55,138.17Z"/></g><g id="S-2" data-name="S"><path class="cls-4" d="M97.34,63.9a7.64,7.64,0,0,0-2.47-3.53c-.38-.33-.74-.67-1.1-1s0-.23.19.25c0-.06-.13-.2-.17-.26-.32-.46.21.6.1.24-.25-.75.11,1.08,0-.17a3.71,3.71,0,0,0-2.51-3.17,9.89,9.89,0,0,0-2.83-.33c-2.13-.08-4.13.12-5.82,1.54a17.24,17.24,0,0,0-3.06,3.84,16.37,16.37,0,0,0-2.1,4.6,7.56,7.56,0,0,0,.34,5.74,4.69,4.69,0,0,0,6.41,1.72c2.18-1.24,2.78-3.79,2.61-6.11a4.19,4.19,0,0,0,0-.5c0-.46-.11-.29-.34.5a1.23,1.23,0,0,1-.61.94c0-.16,1-.64,1.14-.74l1.14-.75a3.43,3.43,0,0,0,.55-.35c.19-.12.11-.09-.27.07q1.11-.28-1.47-.21l-1.1-1.1c-.13-.18-.39-1.26-.17-1.48a1.94,1.94,0,0,0-.12.39c0-.08.28-.57.06-.14l-.2.38a17.06,17.06,0,0,1-1,1.56,12.43,12.43,0,0,0-1.85,3.67,3.1,3.1,0,0,0,3,3.9A8.88,8.88,0,0,0,91.1,71a15.65,15.65,0,0,0,3.1-4.4H88.88l1.73,2.59a3.13,3.13,0,0,0,4.21,1.11,3.94,3.94,0,0,0,1.9-2.62,3.37,3.37,0,0,0-.31-2.37,3.11,3.11,0,0,0-1.84-1.41A3.15,3.15,0,0,0,90.79,66a13.58,13.58,0,0,0-.73,4,3.1,3.1,0,0,0,3.08,3.08A3.13,3.13,0,0,0,96.21,70a2.69,2.69,0,0,1,.06-.75c-.06.37-.06.43,0,.2s.05-.24.07-.36a12,12,0,0,1,.41-1.45L90.79,66c-.13.7.18.34.92-1.07l4.21,1.11L94.2,63.47a3.16,3.16,0,0,0-2.66-1.53,3.08,3.08,0,0,0-2.66,1.53c-.3.58-.61,1.16-1,1.72a4.82,4.82,0,0,1-.55.81c.53-.56-.21.22-.31.31a3.7,3.7,0,0,1-.65.6c.72-.43-.16,0-.29.13-.31.15-.26.14.14,0l-.42.14-.42.11c.46-.05.52-.06.17,0l3,3.9c0-.14.08-.27.12-.41.16-.59-.07.15-.07.14s.33-.62.4-.76c.3-.49.64-1,1-1.45a10.06,10.06,0,0,0,1.72-3.58A3.77,3.77,0,0,0,87,60.42a15,15,0,0,0-4,2.3,4.85,4.85,0,0,0-2,2.22,6.18,6.18,0,0,0-.23,2.8c0,.17,0,.34,0,.51,0,.43.12,0,0-.08,0,.06-.08.29-.09.36,0,.45.27-.51.07-.17s.4-.43.12-.15.36-.2.44-.24c.36-.18.14,0,0,0a2,2,0,0,1,1.72.43c-.18-.16-.2-.35.09.15.08.15.12.64.07.14,0,0,0,.6,0,.24,0-.15,0-.3,0-.46s.08-.61,0-.17,0-.07,0-.17c.07-.35.16-.69.26-1s.19-.52.28-.78c.14-.42-.24.47,0,.08.07-.14.13-.29.2-.43a16,16,0,0,1,1-1.75c.18-.27.36-.53.55-.79s.19-.27.29-.39l.11-.13c.2-.24.39-.48.6-.7,0,0,.24-.28.33-.31-.3.22-.35.27-.16.15s.13-.07,0,0c-.52.14.46-.16-.08,0s.19,0,.32,0c.38,0,.76,0,1.14,0l1.16.05.52,0c.72.05-.61-.19-.09,0l-1.36-.79a1.86,1.86,0,0,1-.55-1.16c-.05-.36-.05-.29,0,.19a4.33,4.33,0,0,0,.12.72,6.23,6.23,0,0,0,.54,1.31,7.75,7.75,0,0,0,1.41,1.72c.4.36.82.69,1.2,1.06l.3.3c.06.06.42.49.07.06s0,0,0,.09c.3.44-.23-.7-.07-.15a3.08,3.08,0,0,0,5.94-1.63Z"/><path class="cls-4" d="M90,69.3a2.26,2.26,0,0,1,0,.45l.11-.81a2.45,2.45,0,0,1-.18.64l.31-.73a5,5,0,0,1-.56.9l.48-.63c-.12.16-.24.31-.37.46A3.34,3.34,0,0,0,89,71.35a2.93,2.93,0,0,0,.37,2,3.61,3.61,0,0,0,1.1,1.1,3.17,3.17,0,0,0,2.37.31A4.31,4.31,0,0,0,95,73.44l-4.83-3.73a2.43,2.43,0,0,1-.28.47l.48-.62a4.84,4.84,0,0,1-.74.69l.62-.48a8.58,8.58,0,0,1-1.87,1.1l.74-.31a8.81,8.81,0,0,1-1.94.57,14.18,14.18,0,0,0-2,.46A3.23,3.23,0,0,0,83.33,73a3.08,3.08,0,0,0,1.1,4.21,3.47,3.47,0,0,0,2.37.31L90.06,77a3.08,3.08,0,0,0,1.83-1.41,3.14,3.14,0,0,0,.31-2.38,3.09,3.09,0,0,0-1.41-1.83A3.53,3.53,0,0,0,88.42,71l-3.25.57,1.63,5.94a13.84,13.84,0,0,1,2.1-.47,12.5,12.5,0,0,0,2.61-.87,8.63,8.63,0,0,0,1.72-1,6.55,6.55,0,0,0,2.27-2.38,3.26,3.26,0,0,0,.31-2.37,3.2,3.2,0,0,0-1.1-1.6,3.07,3.07,0,0,0-4,.24,1.79,1.79,0,0,1-.25.23l.62-.48a2,2,0,0,1-.29.16l.74-.31-.32.1,3,5.14a9.93,9.93,0,0,0,1.34-1.82,5.13,5.13,0,0,0,.67-2.81,3.31,3.31,0,0,0-.9-2.17,3.05,3.05,0,0,0-4.35,0A3,3,0,0,0,90,69.3Z"/><path class="cls-4" d="M89.37,70.82c-3.22,1.2-6.45,2.38-9.66,3.6a25.46,25.46,0,0,0-4.49,2.17c-.35.22-.69.44-1,.63-.14.07-.84.31-.35.17a3.41,3.41,0,0,1-.55.14c.35,0,.35,0,0,0,.36.07.36.06,0,0q.47.21,0-.06l1.42,3.48c.13-.35.14-.38,0-.1.06-.14.12-.28.19-.41s.27-.53.41-.79c.32-.57.67-1.12,1-1.65.71-1,1.48-2,2.21-3.07a24.82,24.82,0,0,0,2-3.24,22.58,22.58,0,0,1,2-3.52,3.08,3.08,0,0,0-1.1-4.21A3.17,3.17,0,0,0,77.21,65a21.52,21.52,0,0,0-2,3.53A26.48,26.48,0,0,1,73.06,72a31.22,31.22,0,0,0-4.31,7.24,3.13,3.13,0,0,0,1.42,3.48,6.56,6.56,0,0,0,6.29.18,14.67,14.67,0,0,0,2.12-1.18c.35-.22.7-.43,1.07-.63.11-.06,1.07-.52.77-.39,3.44-1.49,7.07-2.65,10.59-4A3.16,3.16,0,0,0,93.16,73c-.48-1.47-2.17-2.75-3.79-2.15Z"/><path class="cls-4" d="M78.36,71.1c0,.09-.11.18-.17.27l.48-.63a6.55,6.55,0,0,1-.64.65c-.18.16-.36.34-.53.51a6.73,6.73,0,0,0-1.14,1.3A2.76,2.76,0,0,0,76,74l-.11.82.11.82a2.42,2.42,0,0,0,.31.74,1.83,1.83,0,0,0,.24.31,1.55,1.55,0,0,0,.55.56c-2.37-1.84.22.18.32.24l.74.31.81.11h0l.82-.11h0l.74-.31,0,0a2.18,2.18,0,0,0,.86-.79,2.22,2.22,0,0,0,.55-1,3.39,3.39,0,0,0-.31-2.37l-.48-.62a3,3,0,0,0-1.36-.79l-.81-.11a3,3,0,0,0-1.56.42h0l.73-.31s0,0,0,0l.81-.11h0l.82.11h0l.73.31h0l1.11,1.11h0L82,74h0l.11.81h0l-.11.82h0l-.31.74,0,0-.48.62a9.66,9.66,0,0,1,.71-.72c.22-.24.46-.44.69-.66s.22-.21.33-.33a6.54,6.54,0,0,0,.74-1A2.36,2.36,0,0,0,84,73.06,2.31,2.31,0,0,0,84,71.84a2.41,2.41,0,0,0-.55-1,2.36,2.36,0,0,0-.87-.79l-.73-.31a3,3,0,0,0-1.64,0l-.73.31a3.08,3.08,0,0,0-1.11,1.1Z"/><path class="cls-4" d="M97.49,64.31a8.53,8.53,0,0,1,.84-.86l.1-.08.38-.26c.67-.45,1.37-.9,2.08-1.3a6.8,6.8,0,0,1,3.8-1,41.16,41.16,0,0,1,4.58,0c.11,0,1.28.14.79.06.31,0,.63.11.94.18s.81.22,1.22.35.4.14.16,0c.19.08.38.18.57.28a3.08,3.08,0,0,0,3.11-5.32c-3.65-1.87-7.72-1.92-11.73-1.71a13.93,13.93,0,0,0-6.4,1.73A17.9,17.9,0,0,0,93.13,60a3.08,3.08,0,0,0,4.36,4.35Z"/><path class="cls-4" d="M112.74,61.13a49.08,49.08,0,0,0,5.22,6,5.13,5.13,0,0,0,5,1.55,5.93,5.93,0,0,0,3.59-3.36,15.37,15.37,0,0,0,1.55-4c.22-1.64-.54-3.11-1.24-4.55a11.34,11.34,0,0,0-2.27-3.21c-.84-.82-1.82-1.48-2.65-2.3a15.69,15.69,0,0,0-3-2.66,7.1,7.1,0,0,0-2.91-.85c-.29,0-.59,0-.88-.07l-.51,0c-.45,0,.71.15,0,0A3.08,3.08,0,1,0,113,53.61a12.19,12.19,0,0,0,2.32.3l.51,0c-.4-.07-.42-.07-.07,0,.6.26-.42-.36.12,0a3,3,0,0,1,.38.24c-.33-.25-.36-.27-.1,0s.33.32.49.48c.38.4.74.81,1.14,1.18.86.8,1.84,1.46,2.66,2.31.1.11.57.69.16.14a7.43,7.43,0,0,1,.49.75,15.68,15.68,0,0,1,.79,1.59c.07.16.4,1,.13.3.2.55,0-.37.07-.56.21-.82-.1.22-.18.41l-.33.73a11.29,11.29,0,0,1-.8,1.64q.33-.4,0-.06a.85.85,0,0,1,.42-.27,1.49,1.49,0,0,1,1.19.05c.29.24.3.24,0,0l-.18-.17c-.26-.25-.51-.51-.77-.77-.44-.46-.87-.92-1.29-1.4s-.84-.95-1.24-1.44c-.18-.21-.35-.43-.52-.64s-.22-.28,0,0l-.33-.43a3.15,3.15,0,0,0-4.21-1.1c-1.27.81-2.14,2.83-1.1,4.21Z"/><path class="cls-4" d="M113.8,47.69c-4.48-.66-9-1.14-13.15,1.17a25.89,25.89,0,0,0-4.43,3.37c-.66.58-1.32,1.16-2,1.72-.41.33.56-.4-.19.14l-.47.33c-.4.27-.82.52-1.24.75a3.1,3.1,0,0,0-1.11,4.21,3.15,3.15,0,0,0,4.22,1.1,24.52,24.52,0,0,0,4.26-3.12c.59-.52,1.17-1,1.77-1.55l.44-.37s.49-.39.26-.22.22-.16.26-.19l.6-.41c.32-.21.65-.4,1-.58l.52-.26c-.33.16-.08,0,.12,0,.43-.14.86-.26,1.31-.36.1,0,.51-.1.18,0a5.05,5.05,0,0,1,.68-.06,17.66,17.66,0,0,1,2.91,0l1.38.14.22,0,.85.13c1.58.23,3.38-.4,3.78-2.15.34-1.46-.44-3.54-2.15-3.79Z"/><path class="cls-4" d="M104.67,56.07c.13,0,.5-.06.17,0l.65,0A12.15,12.15,0,0,1,107,56l.41,0c-.22,0,.35.06.41.08.44.08.87.18,1.3.3a23.15,23.15,0,0,1,2.7.91l.2.08.61.27c.44.2.88.41,1.31.63a11.56,11.56,0,0,1,1.09.6c.18.1.35.22.53.33.43.28-.28-.24.1.07a8,8,0,0,1,.85.8c.17.17.33.36.49.54s.25.33.06.07a30.22,30.22,0,0,1,2.51,4.38,3.09,3.09,0,0,0,4.21,1.11,3.16,3.16,0,0,0,1.1-4.22,29.94,29.94,0,0,0-3.16-5.23,14,14,0,0,0-5-3.91c-4.32-2.12-8.85-3.57-13.7-2.75a3.1,3.1,0,0,0-2.15,3.79,3.18,3.18,0,0,0,3.79,2.15Z"/><path class="cls-4" d="M122.79,63.07c2,4.35,2,9.54,1.77,14.23a14.06,14.06,0,0,1-5.24,10.56,3.2,3.2,0,0,0-1.1,4.22c.76,1.29,2.88,2.12,4.21,1.1a20.59,20.59,0,0,0,8.22-14.77c.55-6.17,0-12.77-2.54-18.45a3.11,3.11,0,0,0-4.22-1.1,3.15,3.15,0,0,0-1.1,4.21Z"/><path class="cls-4" d="M117,66.19c.89,3.9.42,8.44-.3,12.35-.76,4.18-3.07,8.09-4.83,11.92a3.21,3.21,0,0,0,.48,3.73,3.13,3.13,0,0,0,3.73.48c4.18-2.61,6.86-6.73,8.88-11.12,2.32-5,4.71-10.37,2.18-15.79a3.11,3.11,0,0,0-4.21-1.11,3.16,3.16,0,0,0-1.11,4.22c.75,1.6.2,3.57-.34,5.15a47,47,0,0,1-2.19,5.18c-1.49,3.12-3.3,6.27-6.32,8.15l4.22,4.22c2-4.44,4.76-9,5.54-13.89s1.33-10.21.21-15.13A3.08,3.08,0,0,0,117,66.19Z"/><path class="cls-4" d="M119.19,88.48a45.79,45.79,0,0,1-6.25,6.28l.62-.48A19.71,19.71,0,0,1,110.94,96l3.1,5.32a13.36,13.36,0,0,0,1.85-1.3,3.07,3.07,0,0,0,.9-2.18,3.11,3.11,0,0,0-.9-2.17,3.14,3.14,0,0,0-2.18-.91,3.55,3.55,0,0,0-2.17.91l-.13.1.62-.48a9.69,9.69,0,0,1-1.09.71,3.11,3.11,0,0,0-1.11,4.21,3.15,3.15,0,0,0,4.21,1.11c3.78-2.07,6.71-5.29,9.5-8.48a3.25,3.25,0,0,0,.91-2.18,3.09,3.09,0,0,0-5.26-2.18Z"/><path class="cls-4" d="M119.25,89.15l-6.37,7.07a30.39,30.39,0,0,1-6.8,5.74,75.87,75.87,0,0,1-7.55,4.28c-2.64,1.23-5.53,1.9-8,3.57A3.16,3.16,0,0,0,89.47,114a3.1,3.1,0,0,0,4.21,1.11c2.41-1.66,5.33-2.35,8-3.58a75.28,75.28,0,0,0,8-4.56,33.27,33.27,0,0,0,7.22-6l6.75-7.49c2.64-2.94-1.7-7.3-4.36-4.35Z"/><path class="cls-4" d="M113.5,86.27c-4.1,3.79-8.22,7.61-13.09,10.41-4.7,2.7-10,4.21-14,8.07-2.85,2.76,1.5,7.11,4.35,4.35,3.74-3.62,9.15-4.94,13.52-7.59,5-3,9.28-7,13.52-10.88,2.92-2.7-1.44-7-4.35-4.36Z"/><path class="cls-4" d="M112,94.35a104.9,104.9,0,0,0-11.84,6.2,83.27,83.27,0,0,1-11.79,5.33,3.17,3.17,0,0,0-2.15,3.79A3.11,3.11,0,0,0,90,111.82a94.9,94.9,0,0,0,12.51-5.53c3.67-2,7.22-4.41,11.12-6a3.2,3.2,0,0,0,2.15-3.79c-.4-1.46-2.24-2.78-3.79-2.15Z"/><path class="cls-4" d="M93.44,99.64c-6.37,2.62-12.6,5.3-18,9.63-5,4-9.06,9.06-13,14.07a3.17,3.17,0,0,0,0,4.35c1.07,1.07,3.32,1.31,4.35,0,3.76-4.75,7.57-9.52,12.24-13.42s10.46-6.38,16.1-8.7a3.18,3.18,0,0,0,2.15-3.78c-.4-1.46-2.24-2.79-3.79-2.15Z"/><path class="cls-4" d="M97.9,106.78a88.28,88.28,0,0,0-9.6,5.47,3.13,3.13,0,0,0-1.11,4.21A3.17,3.17,0,0,0,89,117.87a3.52,3.52,0,0,0,2.38-.31l.61-.29a3.08,3.08,0,0,0-.73-5.63,3.52,3.52,0,0,0-2.38.31l-.61.3,3.11,5.31a88.2,88.2,0,0,1,9.6-5.46,3.09,3.09,0,0,0,1.1-4.21,3.15,3.15,0,0,0-4.21-1.11Z"/><path class="cls-4" d="M96.59,108.2c-7.15,4.54-14.3,9.13-20.68,14.74a3.08,3.08,0,0,0,4.35,4.35c5.93-5.21,12.68-9.49,19.43-13.77a3.08,3.08,0,0,0-3.1-5.32Z"/><path class="cls-4" d="M95.36,101.75l-13,10.17-6.42,5a42.21,42.21,0,0,0-5.64,4.87,3.08,3.08,0,0,0,4.36,4.35,40.84,40.84,0,0,1,5.44-4.72l6.62-5.16,13-10.18c1.31-1,1.07-3.28,0-4.35a3.14,3.14,0,0,0-4.35,0Z"/><path class="cls-4" d="M87.89,106.62a31.65,31.65,0,0,0-17.43,15.57,3.08,3.08,0,1,0,5.32,3.1,29.58,29.58,0,0,1,2.69-4.45c.47-.65-.4.49.1-.13l.37-.46c.28-.33.57-.66.86-1,.58-.65,1.2-1.26,1.84-1.85.29-.27.59-.53.89-.78l.55-.45c.62-.51-.52.37.13-.1s1.41-1,2.16-1.47,1.43-.83,2.17-1.2c.39-.2.78-.38,1.18-.56.73-.33-.61.23.14,0l.66-.26a3.13,3.13,0,0,0,2.15-3.78c-.47-1.48-2.17-2.76-3.78-2.15Z"/><path class="cls-4" d="M85.55,116.17c-2.79,1.5-4.73,4-6.61,6.45a49.67,49.67,0,0,0-5.08,7.61,3.1,3.1,0,0,0,.79,4,3.05,3.05,0,0,0,4-.24,7.43,7.43,0,0,0,1.5-2.54A3.1,3.1,0,0,0,78,127.63a3.17,3.17,0,0,0-3.79,2.15l.17-.36-.14.26c-.11.31.46-.53.06-.08l4.84,3.73A47.82,47.82,0,0,1,84,126.07c.19-.25.41-.5.59-.77-.11.16-.33.42-.09.12l.33-.42c.4-.5.82-1,1.25-1.45a14.18,14.18,0,0,1,1.38-1.31c.07-.06.44-.38.1-.09s.11-.07.2-.12a8.38,8.38,0,0,1,.91-.54,3.08,3.08,0,0,0-3.11-5.32Z"/><path class="cls-4" d="M68.51,121.93c-3.49,4.77-7.06,9.86-8,15.85a3.08,3.08,0,0,0,5.15,3c3.65-3.6,7-7.51,10.26-11.42l-5.14-3L68.07,133a3.07,3.07,0,0,0,1.42,3.47,3.16,3.16,0,0,0,3.73-.48,18.17,18.17,0,0,0,4-6.18,3,3,0,0,0-1.78-3.63,3.08,3.08,0,0,0-3.84,1.26,30.15,30.15,0,0,0-4.48,14.94l4.63-2.65c-.3-.19-.31-.19,0,0a3.7,3.7,0,0,1-.28-.28c-.14-.16-.12-.13.08.1a4.17,4.17,0,0,1-.26-.46c.25.46,0-.06-.08-.28a7.1,7.1,0,0,1-.17-.8c.11.71,0-.21,0-.35a10.7,10.7,0,0,1,0-1.27c0-.79.16-1.58.22-2.37a10.64,10.64,0,0,0-.09-2.52,6.12,6.12,0,0,0-1.4-2.78c-.35-.46,0,.13-.29-.4l-.48-.83c-.16-.34-.19-.38-.09-.14l-.11-.3a12.41,12.41,0,0,1-.35-1.23,3.1,3.1,0,0,0-3.78-2.15,3.15,3.15,0,0,0-2.15,3.79,13,13,0,0,0,2.5,5.11c.22.26.27.33.15.19s-.08-.06.11.22c-.11-.69-.13,0-.14.32,0,.85-.14,1.69-.21,2.54-.33,3.51.43,7.23,3.66,9.18a3.11,3.11,0,0,0,4.63-2.66,24.16,24.16,0,0,1,3.64-11.84l-5.62-2.37c.12-.31,0,0,0,.11s-.18.37-.28.55a11.94,11.94,0,0,1-.7,1.19l-.34.5c-.3.41.24-.29-.09.1a12.77,12.77,0,0,1-.93,1l5.15,3L76.74,128c1.16-2.84-3.22-5.27-5.14-3-3.3,3.92-6.62,7.83-10.26,11.43l5.14,3a19.71,19.71,0,0,1,2.63-7.35,71.88,71.88,0,0,1,4.72-7,3.09,3.09,0,0,0-1.11-4.21,3.17,3.17,0,0,0-4.21,1.11Z"/><path class="cls-4" d="M62.13,123.9A13.85,13.85,0,0,0,58.36,130a35,35,0,0,0-.9,7.92c-.27,4.81-.67,10,1.87,14.36,2,3.41,7.33.32,5.32-3.11-1.83-3.09-1.24-7.26-1.06-10.77.18-3.69,0-7.48,2.89-10.15s-1.46-7.07-4.35-4.36Z"/><path class="cls-4" d="M58.41,133.83a12.74,12.74,0,0,0-.63,13.3A3.11,3.11,0,0,0,62,148.24,3.15,3.15,0,0,0,63.1,144q-.23-.42-.42-.84l.31.73a9.93,9.93,0,0,1-.66-2.4l.11.82a10.68,10.68,0,0,1,0-2.65l-.11.82A10.59,10.59,0,0,1,63,138.1l-.31.74a9.57,9.57,0,0,1,1.07-1.9,3.07,3.07,0,0,0-1.11-4.21,3.07,3.07,0,0,0-2.37-.31,3.57,3.57,0,0,0-1.84,1.41Z"/><path class="cls-4" d="M74.12,130.92c-1.23,4.42-1.41,9.17,1.83,12.78,2.31,2.58,6.78-.81,4.83-3.73-.11-.17-.22-.34-.32-.52s-.16-.4-.06-.1c-.06-.19-.11-.39-.16-.59.06.25,0,.22,0,0a4.31,4.31,0,0,0-2-3.54,4.37,4.37,0,0,0-6,2.33,11.12,11.12,0,0,0,1,10.75l3.48-4.52a46.19,46.19,0,0,1-5-2.36c-.91-.5-1.81-1-2.69-1.57a8.35,8.35,0,0,0-3.22-1.61A3.43,3.43,0,0,0,62,140.83a5.64,5.64,0,0,0,.57,3.6q1.19,3,2.43,6L69.5,147q-.66-.36-1.29-.78c-.21-.13-.41-.28-.61-.43-.44-.32.51.45-.21-.16a19.29,19.29,0,0,1-2.1-2.14l-3.73,4.83,1.83,1.09a3.08,3.08,0,1,0,3.11-5.31L64.67,143a3.08,3.08,0,0,0-4,.79,3.13,3.13,0,0,0,.24,4,18.8,18.8,0,0,0,5.45,4.47,3.11,3.11,0,0,0,3.42-.24,3,3,0,0,0,1.1-3.23c-.54-1.33-1.08-2.65-1.61-4L68.55,143l-.37-1c-.59-1.56.41.2-.87,1.48l-1.36.79.16,0H64.47l-.29-.14.4.28.55.36c.41.26.82.53,1.24.78.89.54,1.79,1,2.71,1.53A56.42,56.42,0,0,0,75,149.69c2.45.95,5-2.4,3.48-4.52a9.54,9.54,0,0,1-.72-1.18c-.37-.73.12.49-.1-.29-.06-.23-.13-.44-.19-.67s-.11-.59,0-.14c0-.23,0-.46,0-.69s0-.46,0-.69c0-.83-.16.52,0-.28,0-.23.1-.45.16-.67s.21-.56,0-.14c.12-.25.54-.73-.08-.13-1,1-3.56.08-3.42-1.31a7.2,7.2,0,0,0,1.37,4.1l4.83-3.73c-.23-.27-.25-.29-.06,0-.1-.16-.21-.32-.3-.48s-.34-.8-.16-.3c-.13-.37-.22-.74-.32-1.11s-.07-.38,0,0a3.22,3.22,0,0,1,0-.43,9.14,9.14,0,0,1,0-1.17c0-.23,0-.46,0-.69,0,.2,0,.19,0,0a24.06,24.06,0,0,1,.59-2.51,3.08,3.08,0,0,0-5.94-1.64Z"/><path class="cls-4" d="M97,138l2.33,3.83A7.21,7.21,0,0,0,100,143l.24.41-.08-.73c-.09-.06-.6.65-.7.78-1.88,2.28-3.33,4.73-3.41,7.77a3.11,3.11,0,0,0,5.26,2.17c2-2.19,3.68-6,6.88-6.66l-2.37-5.63a9.66,9.66,0,0,0-3.93,5h5.94c-.09-.32-.08-.36.2-.67a2.46,2.46,0,0,1,1.48-.63,14.32,14.32,0,0,1,5.64.37,17.05,17.05,0,0,1,9.23,6l4.36-4.36-.44-.39c-3-2.64-7.32,1.7-4.36,4.35l.44.4a3.08,3.08,0,0,0,4.36-4.36,22.64,22.64,0,0,0-14.63-8c-2.87-.37-6.2-.4-8.79,1.06a7.11,7.11,0,0,0-3.43,7.93c.82,3.12,4.94,2.71,5.94,0a2.62,2.62,0,0,1,1.1-1.31,3.1,3.1,0,0,0-2.37-5.63c-4.65.92-6.66,5.08-9.61,8.25l5.26,2.18c.07-2.74,3-4.29,3.81-6.73.61-1.85,0-3.47-1-5.06s-1.82-3-2.73-4.51c-2-3.38-7.38-.29-5.32,3.11Z"/><path class="cls-4" d="M124.22,144c-4.58-1.26-9.4-2-14.11-.94A16.72,16.72,0,0,0,100,149.73l5.31,3.11,1.19-2.13c1.26-2.28-.84-5.32-3.48-4.52a6.43,6.43,0,0,0-4.14,3.92c-.81,2-.56,4.14-.78,6.24l5.25-2.18c-.22-.2-.33-.22-.07,0s0-.44,0-.06c0-.22,0-.44,0-.67,0-1-.1.44.08-.5a3.12,3.12,0,0,0-1.11-3.24,3.06,3.06,0,0,0-3.41-.24A5.48,5.48,0,0,0,96.4,153c-.31,1.48,0,2.91-.11,4.39h6.15l.16-2.71a3.08,3.08,0,0,0-6.16,0l-.15,2.71a3.11,3.11,0,0,0,3.07,3.08,3.15,3.15,0,0,0,3.08-3.08,18.1,18.1,0,0,0,0-2.55c0-.07,0-.87,0-.36,0-.53.16,0-.42.36l-4.52-3.48c-.46,2.51-.57,5.37,1.54,7.21a3.12,3.12,0,0,0,5.26-2.17c.12-1.14,0-2.34.18-3.46.09-.54,0-.31.27-.77,0-.06.08-.14.1-.11s.27,0-.15.12l-3.48-4.53L100,149.73a3.08,3.08,0,1,0,5.31,3.11,10.82,10.82,0,0,1,6.84-3.89c3.46-.67,7.12.09,10.48,1,3.82,1.05,5.46-4.89,1.63-5.94Z"/><path class="cls-4" d="M147.81,134.21c.49-5.69-1.82-11.88-7.21-14.49a3.15,3.15,0,0,0-4.21,1.11,3.11,3.11,0,0,0,1.1,4.21l1.83.91a3.08,3.08,0,0,0,3.11-5.31c-1.69-1.28-3.36-2.88-5.38-3.61s-4.3-.6-6.37-.72a30.24,30.24,0,0,0-6.31.08c-2,.3-3.78,1.27-5.76,1.69L121,123.7a8.18,8.18,0,0,1,3.41-.71c4,0,4-6.2,0-6.16a15.47,15.47,0,0,0-6.51,1.56,3,3,0,0,0-1.26,3.84,3.1,3.1,0,0,0,3.63,1.78c1.67-.35,3.19-1.21,4.87-1.54a20.8,20.8,0,0,1,5,0l3,.19a6.18,6.18,0,0,1,1.87.21,9.38,9.38,0,0,1,1.92,1.35l2.34,1.77,3.11-5.31-1.83-.92L137.49,125c3.54,1.71,4.49,5.44,4.17,9.17a3.1,3.1,0,0,0,3.08,3.08,3.14,3.14,0,0,0,3.07-3.08Z"/><path class="cls-4" d="M116.87,118.3a45.73,45.73,0,0,0-19.21,16.14,3.09,3.09,0,0,0,1.1,4.21,3.16,3.16,0,0,0,4.22-1.11c.27-.4.55-.79.83-1.19l.44-.58c.19-.26-.2.24.14-.18.61-.75,1.23-1.49,1.89-2.21a43.1,43.1,0,0,1,4.21-4l.45-.37s.75-.58.29-.23c.39-.3.78-.58,1.17-.87.75-.53,1.52-1,2.3-1.52a42.74,42.74,0,0,1,5.28-2.76,3.09,3.09,0,0,0,1.11-4.21,3.18,3.18,0,0,0-4.22-1.11Z"/><path class="cls-4" d="M102.05,140.52c7.47.94,14.69-3.52,21.08-6.79a15.51,15.51,0,0,1,9.39-1.87c2.92.43,4.87,3.44,7.47,4.66a3.12,3.12,0,0,0,4.63-2.65c.3-3.72-2.86-7-5.75-8.87-3.43-2.27-7.7-2.06-11.59-1.57s-7.13,1.42-10.18,3.83c-.67.53-1.31,1.09-1.94,1.65A13.19,13.19,0,0,1,114,130c-.7.48.62-.08-.26,0a10.47,10.47,0,0,0-2.72.58,10,10,0,0,0-1.33.6c-.63.34-1,.25-.22.48l1.35.8h0l-1.1,4.21c3.93-3,8-6.88,12.6-8.71s9.88-.85,14.57.36c3.84,1,5.47-4.94,1.63-5.93-5.53-1.44-11.62-2.42-17.19-.59s-10.13,6-14.72,9.55a3.21,3.21,0,0,0-1.1,4.21,4.09,4.09,0,0,0,4,2.26c1.61-.08,2.63-1.29,4.11-1.63.74-.18,1.54-.06,2.29-.29a6.68,6.68,0,0,0,2.24-1.35c1.18-1,2.25-2.12,3.52-3,2.71-1.88,6.39-2.23,9.61-2.29a7.39,7.39,0,0,1,4.76,1.21c1,.77,2.61,2,2.5,3.41l4.63-2.66c-2.91-1.37-4.86-4.08-8-5.06a19,19,0,0,0-11.05.45c-7.19,2.56-13.89,8.79-22,7.76-1.65-.21-3.08,1.57-3.08,3.08a3.16,3.16,0,0,0,3.08,3.08Z"/><path class="cls-5" d="M97.23,65.56c1.13-4.29,6.77-5.35,10.58-5.37,4,0,8,1.85,9.21,5.93a26.5,26.5,0,0,1,.39,12.67,14.26,14.26,0,0,1-6,9.16c-.84.52-.07,1.86.78,1.33A15.9,15.9,0,0,0,119,78.67a29.23,29.23,0,0,0,.29-8.25,17.62,17.62,0,0,0-1.55-6.6c-2.12-4-6.94-5.45-11.22-5.11S97,60.48,95.75,65.15a.77.77,0,0,0,1.48.41Z"/><path class="cls-5" d="M117.5,72.56A36.77,36.77,0,0,1,115,84.13c-.37.92,1.12,1.32,1.48.41a38.22,38.22,0,0,0,2.57-12c0-1-1.49-1-1.54,0Z"/><path class="cls-5" d="M103,60.3a.38.38,0,0,0,0-.75.38.38,0,0,0,0,.75Z"/><path class="cls-5" d="M100.45,61.81a11.1,11.1,0,0,1,4.69-2,15.81,15.81,0,0,1,5.56-.49c3.22.4,6.41,2.74,6,6.3-.13,1,1.41,1,1.53,0,.51-4.06-3-7.09-6.73-7.73a16.52,16.52,0,0,0-6.41.36,13.15,13.15,0,0,0-5.7,2.44c-.76.63.33,1.71,1.09,1.09Z"/><path class="cls-5" d="M102.37,109.75A90.72,90.72,0,0,0,88.19,118c-4,2.71-8.22,5.67-10.15,10.28-1.69,4-2.38,9.09.19,12.93s6.67,4.28,10.83,3.22a12.19,12.19,0,0,0,6.29-3.56,44,44,0,0,0,5-7.73A.77.77,0,0,0,99,132.4c-1.45,2.56-2.88,5.48-4.9,7.63a12.23,12.23,0,0,1-7.28,3.34c-6.7,1-9.65-5.28-8.41-11.09A15.22,15.22,0,0,1,82,124.9a39.6,39.6,0,0,1,6.43-5.19,90.66,90.66,0,0,1,14.69-8.64c.9-.39.12-1.72-.78-1.32Z"/><path class="cls-5" d="M97.58,133.71c-2.24,2.69-4.54,5.45-7.62,7.2l.93,1.21c0-.05-.08,0,.11,0,1-.21.56-1.7-.41-1.49a1.64,1.64,0,0,0-.79.44c-.65.6.18,1.63.93,1.21,3.21-1.82,5.61-4.65,7.93-7.45a.77.77,0,0,0,0-1.08.75.75,0,0,0-1.08,0Z"/><path class="cls-5" d="M94.41,138.15a19.25,19.25,0,0,1-2,1.42,22,22,0,0,1-2.22,1.24.77.77,0,0,0-.28,1.05.78.78,0,0,0,1.05.28,22.09,22.09,0,0,0,4.49-2.9.77.77,0,0,0,0-1.09.8.8,0,0,0-1.09,0Z"/><path class="cls-5" d="M92.94,138.31a8.56,8.56,0,0,0-2.13,1.18l-2.09,1.35a.77.77,0,1,0,.77,1.33l2-1.31,1-.64c.14-.09.29-.19.44-.27a1.92,1.92,0,0,1,.25-.12c-.15.06.11,0,.14,0a.77.77,0,1,0-.41-1.48Z"/><path class="cls-5" d="M94.73,137.45A4.15,4.15,0,0,0,92,139.3a.77.77,0,0,0,.28,1,.78.78,0,0,0,1.05-.27,1.43,1.43,0,0,1,.14-.2l-.12.15a3.64,3.64,0,0,1,.62-.62l-.15.12a3.62,3.62,0,0,1,.76-.45l-.18.08a3.5,3.5,0,0,1,.78-.23.77.77,0,0,0,.46-.35.86.86,0,0,0,.08-.59.79.79,0,0,0-.36-.46.86.86,0,0,0-.59-.08Z"/><path class="cls-5" d="M92.72,140.13a3.71,3.71,0,0,1-1.3.83c-.55.27-1.1.52-1.67.74a24.84,24.84,0,0,1-3.69,1.1.77.77,0,0,0,.41,1.49,24.65,24.65,0,0,0,4-1.25,8,8,0,0,0,3.53-2.13.77.77,0,1,0-1.33-.78Z"/><path class="cls-5" d="M88.9,141.33c-1.43.32-2.86.61-4.3.88a.77.77,0,0,0-.54.94.79.79,0,0,0,1,.54c1.44-.27,2.87-.56,4.3-.87a.77.77,0,0,0,.53-.95.79.79,0,0,0-.94-.54Z"/><path class="cls-5" d="M88.55,141.1a55.8,55.8,0,0,1-5.32,1.71.77.77,0,1,0,.41,1.48A55.8,55.8,0,0,0,89,142.58a.77.77,0,0,0-.41-1.48Z"/><path class="cls-5" d="M85,142.27A11,11,0,0,1,81.48,141a6.54,6.54,0,0,1-2.17-3l-.87,1.13a4.12,4.12,0,0,1,1.78,1.1A7.29,7.29,0,0,0,81.93,142a8,8,0,0,0,5,.92.79.79,0,0,0,.77-.77.78.78,0,0,0-.77-.77,6.2,6.2,0,0,1-4.47-.9c-.6-.47-.91-1.19-1.48-1.68a7.17,7.17,0,0,0-2.11-1.13.76.76,0,0,0-.81.27.79.79,0,0,0-.06.86,7.92,7.92,0,0,0,2.62,3.5,11.63,11.63,0,0,0,4,1.45c1,.22,1.37-1.26.41-1.48Z"/><path class="cls-5" d="M80,137.73a13.59,13.59,0,0,1,.81-7.08,13.25,13.25,0,0,1,1.71-3.05c.78-1,1.77-1.91,2.5-3a.77.77,0,0,0-.86-1.13c-2.53.77-3.77,3.32-4.87,5.52-1.37,2.71-2.45,5.58-2,8.67.15,1,1.63.56,1.49-.41-.39-2.62.68-5.19,1.84-7.49.88-1.76,1.89-4.18,3.94-4.81l-.86-1.13c-.78,1.14-1.84,2-2.64,3.17a14.88,14.88,0,0,0-1.81,3.44,15.08,15.08,0,0,0-.74,7.7c.16,1,1.64.56,1.49-.41Z"/><path class="cls-5" d="M81.07,131a33.37,33.37,0,0,1,3.54-5.44,14.82,14.82,0,0,1,4-4.15l-.77-1.32-.31.2c-.83.53-.06,1.87.77,1.33l.31-.21a.76.76,0,0,0-.77-1.32,15.63,15.63,0,0,0-4.39,4.41,35.58,35.58,0,0,0-3.76,5.73c-.43.88.89,1.67,1.33.77Z"/><path class="cls-5" d="M98.06,112.71A78.58,78.58,0,0,0,85.16,122c-.74.66.35,1.74,1.09,1.09A77,77,0,0,1,98.84,114a.77.77,0,0,0-.78-1.32Z"/><path class="cls-5" d="M85.89,121.12,83.6,123a4.28,4.28,0,0,0-1.56,2.1.77.77,0,0,0,1.49.41,1.2,1.2,0,0,1,.08-.27c0,.08,0,.09,0,0a.83.83,0,0,1,.07-.13s.13-.24.15-.23-.09.12,0,0l.11-.13a8.6,8.6,0,0,1,.84-.76l2.2-1.8a.77.77,0,0,0,0-1.09.79.79,0,0,0-1.09,0Z"/><path class="cls-5" d="M56.34,145.41c3.45,8,12.06,11.23,20,12.84,3.93.8,7.74,1.36,11.64,0a19.19,19.19,0,0,0,9.13-6.77c.59-.79-.74-1.56-1.33-.78a17.17,17.17,0,0,1-9.08,6.33c-3.79,1.05-7.56.24-11.31-.59-7.17-1.58-14.65-4.66-17.74-11.84-.39-.91-1.72-.13-1.33.77Z"/><path class="cls-5" d="M96,136.77c-3.68,4.38-9.8,6.93-15.22,8.29S68.36,147,63,144.8c-1.54-.63-3.38.68-3.79,2.15a3.17,3.17,0,0,0,2.15,3.79c3.26,1.33,7.15,1.58,10.65,1.57A44.28,44.28,0,0,0,82.41,151c6.35-1.59,13.62-4.76,17.93-9.87a3.17,3.17,0,0,0,0-4.36,3.11,3.11,0,0,0-4.35,0Z"/><path class="cls-5" d="M62.2,154.27Q66,157,69.81,159.79l3.1-5.31-.46-.32a3.07,3.07,0,0,0-2.37-.31,3.14,3.14,0,0,0-1.84,1.41,3.08,3.08,0,0,0-.31,2.37,3.42,3.42,0,0,0,1.42,1.84l.46.32a3.07,3.07,0,0,0,2.37.31A3.14,3.14,0,0,0,74,158.69a3.08,3.08,0,0,0,.31-2.37l-.31-.74a3,3,0,0,0-1.11-1.1q-3.76-2.8-7.61-5.52a3.07,3.07,0,0,0-2.37-.31,3.14,3.14,0,0,0-1.84,1.41,3.17,3.17,0,0,0-.31,2.37,3.46,3.46,0,0,0,1.42,1.84Z"/><path class="cls-5" d="M61.51,153.88c3.68,3.33,7.2,6.86,11.54,9.32,2.18,1.24,4.36,2.48,6.56,3.68a22.82,22.82,0,0,0,7,2.75,3.17,3.17,0,0,0,3.79-2.15,3.12,3.12,0,0,0-2.15-3.79,18.47,18.47,0,0,1-5.9-2.33c-2.07-1.14-4.13-2.31-6.19-3.47-3.89-2.21-7-5.38-10.29-8.37a3.17,3.17,0,0,0-4.36,0,3.13,3.13,0,0,0,0,4.36Z"/><path class="cls-5" d="M69.68,154.86a35.32,35.32,0,0,0,15.94,3.53,3.08,3.08,0,0,0,0-6.16,31.62,31.62,0,0,1-3.64-.12L81.2,152c-.36-.05-.34,0,0,0l-.51-.08c-.56-.09-1.11-.2-1.67-.32a30.92,30.92,0,0,1-3.39-.93c-.57-.19-1.14-.41-1.71-.63-.8-.32.56.26-.22-.1l-.95-.44a3.15,3.15,0,0,0-4.21,1.11,3.11,3.11,0,0,0,1.1,4.21Z"/><path class="cls-5" d="M78.26,156c3.79.2,7.34-1.43,10.48-3.38s6.4-4.19,9.59-6.29A3.08,3.08,0,0,0,95.22,141c-3,2-6,4-9,5.94-.67.43-1.35.85-2,1.24s-1.57.82-1.91,1a19.81,19.81,0,0,1-2,.59l-.6.11c.31-.05.27-.05-.1,0s-.83,0-1.25,0a3.11,3.11,0,0,0-3.08,3.08A3.15,3.15,0,0,0,78.26,156Z"/><path class="cls-5" d="M97.87,143.25a1.5,1.5,0,0,0,0-3,1.5,1.5,0,0,0,0,3Z"/><path class="cls-5" d="M94.25,141.2a33.43,33.43,0,0,0-3.7,8.57c-.11.35-.21.69-.33,1,0,.07-.1.42-.16.45l.13-.3a3.18,3.18,0,0,1-.16.32,3.3,3.3,0,0,1-.23.41c-.31.5-.14,0,0,0-.13,0-.56.57-.66.66-.27.28.47-.3.13-.09l-.44.29c-.27.17-.55.32-.83.46l-.39.19c-.39.18-.27.07,0,0-.31.08-.59.26-.92.32h1.64c1.19.17,1.35.88,1.58,1.63.13.46,0-.06,0-.21,0-.36,0-.72,0-1.09a5.9,5.9,0,0,0-.74-3,6.71,6.71,0,0,0-1.49-1.7c-.23-.19-.47-.38-.68-.58s-.17-.17-.25-.25c-.44-.42.37.57.07.06l-1.84,4.52c.35-.08.32-.09-.08,0a2.8,2.8,0,0,1,.5,0,3.09,3.09,0,0,0,3.08-3.08,3.17,3.17,0,0,0-3.08-3.08,6.21,6.21,0,0,0-2.06.21,3.11,3.11,0,0,0-1.84,4.52A13,13,0,0,0,84,154l.24.26c-.3-.41-.36-.47-.19-.21-.18-.49-.22-.56-.11-.21-.05-.48-.06-.54,0-.19a14.11,14.11,0,0,0,0,1.72c.16,2.41,1.87,4.72,4.56,4.09A12.34,12.34,0,0,0,92,157.83a9.42,9.42,0,0,0,3.2-3.14,18.25,18.25,0,0,0,1.49-3.86,27.66,27.66,0,0,1,1.3-3.64c-.35.72.11-.24.17-.37.14-.29.28-.58.43-.86a17.15,17.15,0,0,1,1-1.65,3.1,3.1,0,0,0-1.1-4.21,3.15,3.15,0,0,0-4.21,1.1Z"/><path class="cls-5" d="M83.23,150.66a4.67,4.67,0,0,0-1.26,3,14.89,14.89,0,0,0,.11,1.64c0,.27-.14.82,0,0a2.18,2.18,0,0,1,.6-1c.32-.13.3-.12,0,0a6.51,6.51,0,0,1-.85.24c-.1-.25,1,.31.93.29-.41-.17-.73-.61-1.12-.86a4.22,4.22,0,0,0-1.29-.5,3.9,3.9,0,0,0-3.54,1,5,5,0,0,0-1.16,5.14c1,3.14,4,4.91,6.73,6.47a59.72,59.72,0,0,0,9.11,4.22A3.09,3.09,0,0,0,95,168.9a3.19,3.19,0,0,0-.48-3.73,52.61,52.61,0,0,1-3.77-4c.2.25,0-.05-.09-.14s-.24-.36-.35-.54L90,160c-.1-.16-.19-.39-.07-.08-.07-.19-.14-.38-.19-.57,0,0-.21-.81-.14-.46s0-.26,0-.33c0-.25,0-.49,0-.74l-6,.82a34.43,34.43,0,0,0,6.69,11.69,3.05,3.05,0,0,0,4,.24,3.13,3.13,0,0,0,.79-4l-1.18-2.65c-.21-.46-.42-.91-.62-1.37.13.3,0,0,0-.14s-.18-.5-.25-.75c0,0-.15-.63-.1-.35s0-.3,0-.35c0-.35-.16.41,0-.19.1-.27.16-.27,0,0,.2-.32.38-.65.61-1-.33.43.08-.07.15-.15l.48-.53-5.26-2.17a15.18,15.18,0,0,0,5.4,12.62,3.15,3.15,0,0,0,4.35,0c1-1.13,1.34-3.27,0-4.36a12.64,12.64,0,0,1-1-.92c-.16-.16-.32-.33-.47-.5s-.39-.47-.12-.12a11.77,11.77,0,0,1-1.39-2.37c.13.28.09.22,0,0s-.18-.52-.26-.79a12.28,12.28,0,0,1-.28-1.2c0-.27-.07-.59,0-.14,0-.22,0-.45,0-.68a10.85,10.85,0,0,1,0-1.51c.2-2.65-3.52-4.09-5.26-2.18-1.93,2.12-3.39,4.39-3,7.38.35,2.63,1.87,5.15,3,7.55L94.59,166c-.3-.35-.6-.7-.88-1.06-.13-.17-.13-.16,0,0l-.19-.24-.36-.5c-.56-.79-1.08-1.62-1.56-2.46s-.88-1.62-1.26-2.46l-.15-.34c.12.29-.17-.42-.2-.48-.18-.48-.35-1-.52-1.45a3.08,3.08,0,0,0-6,.82c-.44,4.94,3.56,8.52,6.68,11.73l3-5.15c-.67-.25-1.34-.5-2-.78-.2-.08-.21-.08,0,0l-.46-.19-.9-.41c-1.25-.58-2.48-1.2-3.68-1.88s-2.19-1.24-3.22-2c-.16-.11-.65-.51-.25-.17-.2-.17-.4-.34-.59-.53s-.48-.61-.19-.18c-.08-.11-.42-.86-.33-.53s.09.16,0-.13a.86.86,0,0,1,0,.57c0,.26,0,.25,0,0-.13.59-.59.87-1.35.84a1.31,1.31,0,0,1-1.53.4c-.26-.19-.31-.22-.13-.08a3.16,3.16,0,0,0,1.18.82,6.18,6.18,0,0,0,4.9,0,5.07,5.07,0,0,0,3.52-3.45,5.34,5.34,0,0,0,.09-1.91c0-.25,0-.52-.08-.77v-.32a1.71,1.71,0,0,1-.52,1.28,3.08,3.08,0,1,0-4.36-4.35Z"/><path class="cls-5" d="M101.8,167.39c-.64-.28-1.28-.56-1.9-.89-.31-.16-.62-.33-.92-.52-.11-.07-1-.71-.43-.26a8.4,8.4,0,0,1-.76-.7c-.12-.12-.23-.25-.34-.38.22.28.23.28,0,0,0-.1-.55-1.11-.35-.6a11.83,11.83,0,0,1-.37-1.15,17.52,17.52,0,0,1-.68-4.44c-.1-1.68-.1-3.36-.1-5.05a3.08,3.08,0,0,0-6.16,0c0,3.89,0,8,1.17,11.7a10.41,10.41,0,0,0,3.1,4.9,17.8,17.8,0,0,0,4.61,2.71,3.16,3.16,0,0,0,4.21-1.1c.7-1.32.47-3.54-1.11-4.21Z"/><path class="cls-5" d="M90.44,163.46a38.07,38.07,0,0,0,5.81,7.73,3.18,3.18,0,0,0,2.18.9,3.08,3.08,0,0,0,2.17-5.25,34.88,34.88,0,0,1-2.58-3l.48.62a35.69,35.69,0,0,1-2.75-4.13,3.08,3.08,0,0,0-4.21-1.1,3.14,3.14,0,0,0-1.1,4.21Z"/><path class="cls-5" d="M130.17,154.85c-.53-4.42-5.09-7.34-9.11-8.37a22,22,0,0,0-13.45,1.09c-4.07,1.67-7.47,4.88-8.26,9.37-.74,4.25-.54,10.09,4.05,12a12.84,12.84,0,0,0,6.76.87,8.11,8.11,0,0,0,5.26-3.83,12.81,12.81,0,0,0,2-6.27c.12-2.25-.3-5-2.46-6.12-4-2.13-9.24,1.5-10.16,5.51a7.94,7.94,0,0,0,6.29,9.38c3,.48,5.82-.92,6.64-3.92.67-2.43-.25-5.16-1.25-7.35s-2.71-4.66-5.36-5a4.5,4.5,0,0,0-5,5.47,3,3,0,0,0,2.56,2.2,3.18,3.18,0,0,0,3.07-1.47c1.85-2.51.35-6.7-2.85-7.11-3.82-.49-4.49,4.08-3.88,6.83a9.32,9.32,0,0,0,4,5.65,6.64,6.64,0,0,0,4,1.12,4,4,0,0,0,3.7-3.18,3.18,3.18,0,0,0-2.15-3.79c-1.44-.39-3.54.5-3.78,2.15l.68-.91,1.55-.42c-.7.09-1.27-.49-1.66-1.12a2.41,2.41,0,0,1-.44-1.14c.09.42,0-.49,0-.52,0-.47.13-.24,0,0L109,157.42l.25-.11h-1.63l.34.13-1.36-.79a3.31,3.31,0,0,1-.26-.88c.31-.74.32-.89,0-.44l5.63.73-1.14,2.21-1.11-.15a.23.23,0,0,1,.19.16s.46.68.61.94a9.67,9.67,0,0,1,1.16,3.21c0-.32,0,.29,0,.27.3,1.18-.09.27,0,.26a3.63,3.63,0,0,0,.5-.47c0,.07-.62-.17-.44-.09-.28-.13-.39-.23-.22-.09s-.68-.7-.43-.38a1.53,1.53,0,0,1-.41-.79c0-.16,0-.56-.07-.37a1.79,1.79,0,0,1,1-1.3c.18-.1.62-.22.36-.2a3.89,3.89,0,0,0,.68,0l-1.54-1.08.08.39a19.49,19.49,0,0,1-.33,2.73,5.5,5.5,0,0,1-1.13,2c-.55.58-1,.58-2.08.44a11.86,11.86,0,0,1-1.9-.37c-.48-.18-.51-1.3-.54-1.94-.11-2-.06-4.12,1.16-5.73a9.29,9.29,0,0,1,5.14-3,15.78,15.78,0,0,1,7.69-.35,9.49,9.49,0,0,1,3,1.23,6.2,6.2,0,0,1,1.18.93c.17.17.34.4.53.56s.2.7.09-.24a3.18,3.18,0,0,0,3.08,3.08c1.5,0,3.28-1.42,3.07-3.08Z"/><path class="cls-5" d="M102.07,163.71c.24.09.18.08-.2,0,.2.14.13.11-.21-.08s-.3-.17-.61-.48a11,11,0,0,1-1.42-2A3.08,3.08,0,0,0,94,163.49a7.89,7.89,0,0,0,3.29,4.26c2.63,1.71,5.73-1.63,4.21-4.21a2.29,2.29,0,0,1-.15-1.77,24.91,24.91,0,0,1,1.14-3.17c-.16.36.12-.25.15-.31s.19-.4.29-.59a12,12,0,0,1,.73-1.25c.52-.78-.16.14.2-.25a5.85,5.85,0,0,1,.57-.54c-.26.2,0,0,.15-.07a1.41,1.41,0,0,1,.38-.19,15.75,15.75,0,0,1,6.42-.6,22.81,22.81,0,0,1,6.71,1.49,3.11,3.11,0,0,0,3.79-2.15,3.16,3.16,0,0,0-2.15-3.79,28.41,28.41,0,0,0-9.34-1.75c-2.94,0-6.5.15-9.06,1.76s-3.8,4.22-4.9,6.9c-1.25,3.05-2,6.35-.24,9.38l4.21-4.21c-.25-.16-.24-.14-.29-.24.16.32-.38-.94-.18-.33l-5.62,2.37c1.8,2.93,4.07,5.5,7.75,5.64a3.08,3.08,0,0,0,0-6.16Z"/><path class="cls-5" d="M104.13,156.2a9,9,0,0,1,.91-.83c-.4.31.36-.24.37-.24a9.36,9.36,0,0,1,1.06-.61c.09-.05.88-.4.39-.2a14.24,14.24,0,0,1,2.08-.64c.36-.09.71-.16,1.07-.22s.21,0,0,0l.62-.06c3.48-.3,6.53.35,9.93,1a3.08,3.08,0,0,0,1.63-5.94c-4-.81-8.1-1.66-12.18-1.19a16.71,16.71,0,0,0-10.2,4.54,3.08,3.08,0,0,0,4.36,4.35Z"/><path class="cls-5" d="M105.09,155a23.26,23.26,0,0,1,2-1.3c.34-.19.69-.38,1-.55.1,0,1.15-.52.62-.3a22.37,22.37,0,0,1,4.54-1.28c.37-.06.39-.06.06,0l.59-.06c.39,0,.79-.06,1.18-.08a20.61,20.61,0,0,1,2.36,0c.12,0,1.29.15.65.06q.58.08,1.17.21a20.22,20.22,0,0,1,2.28.62,3.1,3.1,0,0,0,3.78-2.15,3.13,3.13,0,0,0-2.15-3.78A23.76,23.76,0,0,0,102,149.7a3.17,3.17,0,0,0-1.11,4.22c.83,1.28,2.83,2.12,4.21,1.1Z"/><path class="cls-5" d="M122.3,152.75a7,7,0,0,1,.77.26l-.73-.31a6.58,6.58,0,0,1,1.4.82l-.63-.48a7,7,0,0,1,1.15,1.16l-.48-.62a7.15,7.15,0,0,1,.83,1.41l-.31-.74a7.62,7.62,0,0,1,.54,2l-.11-.82a9,9,0,0,1,0,2.07l.11-.82a11.71,11.71,0,0,1-.34,1.56,3.09,3.09,0,0,0,2.14,3.78,3.14,3.14,0,0,0,3.79-2.15,11.2,11.2,0,0,0-.67-8.35,9.37,9.37,0,0,0-5.83-4.69,3.07,3.07,0,0,0-1.63,5.93Z"/><path class="cls-5" d="M119.17,158.39l.23-1a.64.64,0,0,1-.25.15,6.15,6.15,0,0,0-1.13.34l2.37,5.62c3.32-1.83,5.78-7,2.4-9.95-3.55-3.16-8.66,1-10.25,4.32-1.05,2.2-.92,4.76,1.11,6.34a8.4,8.4,0,0,0,5.67,1.27c4.63-.35,8.28-4.36,6.13-9L122,161c.3.05.56.26.37,0-.3-.41-.13,1.64-.08,1.83a3.28,3.28,0,0,0,4.84,1.93,3,3,0,0,0,1.52-2.65V162c-.11-2.85-4.33-4.45-5.74-1.55-.26.44-.24.48.05.11-.23.15-.47.29-.71.43-.52.3-1,.59-1.58.88-1.23.68-2.47,1.35-3.71,2-2.42,1.29-4.84,2.61-7.35,3.71a14.1,14.1,0,0,1-7.21,1.27,36.45,36.45,0,0,1-7.82-2c-3.78-1.23-5.4,4.72-1.64,5.93a41.4,41.4,0,0,0,9.75,2.22,20,20,0,0,0,9.53-1.91c2.86-1.25,5.63-2.75,8.38-4.22,2.48-1.33,6.31-2.66,7.63-5.35L122.46,162v.13l1.53-2.66-.14.07,2.37-.31-.14-.05,2.15,2.15-.06-.24v1.64c.8-3.29-.95-7.09-4.56-7.65a3.13,3.13,0,0,0-3.48,4.52c-.1-.23-.14-.65-.06-.62s-1.21.42-.77.33c-.67.13-1.46-.18-2.06-.08q-1.12-.39.72,1.5l.23-.41s.69-.88.67-.85a6.67,6.67,0,0,1,.84-.67c.58-.45.51,0,.1-.12l-1.36-.79c-.74-.59.09-.62-.25-.55.2,0-1,.87-.91.84-3.07,1.7-1,6.51,2.38,5.62s6.14-3.22,5.45-7.07a3.11,3.11,0,0,0-3.79-2.15,3.16,3.16,0,0,0-2.15,3.79Z"/><path class="cls-5" d="M85.22,169.55a19.59,19.59,0,0,0,6.06,3.16c2.11.77,4.23,1.55,6.35,2.31,4.13,1.47,9,2.38,12.88-.35a3.16,3.16,0,0,0,1.11-4.21,3.1,3.1,0,0,0-4.21-1.1,4.89,4.89,0,0,1-3.7.92A20.62,20.62,0,0,1,98.9,169l-5.41-2a13.26,13.26,0,0,1-3.91-1.79,3.18,3.18,0,0,0-4.36,0,3.12,3.12,0,0,0,0,4.36Z"/><path class="cls-5" d="M93.32,174.61a25.47,25.47,0,0,0,5.46,1.91,14.34,14.34,0,0,0,6.38.24,33.65,33.65,0,0,0,5.34-2.23l5.35-2.4a3.09,3.09,0,0,0,1.11-4.21,3.17,3.17,0,0,0-4.21-1.1l-4.49,2-2.42,1.08-1,.46q-.53.23-.18.09l-.47.17a3,3,0,0,1-1.73.24,9,9,0,0,1-1.83-.25,20,20,0,0,1-4.17-1.32,3.15,3.15,0,0,0-4.21,1.1c-.72,1.36-.45,3.49,1.1,4.21Z"/><path class="cls-5" d="M146.66,142.48c.62-1.61,1.52-3.53,1.5-5.28,0-2.18-1.88-3.48-3.56-4.53a23,23,0,0,0-9.06-3,27.13,27.13,0,0,0-10.24.17c-3.29.8-6.69,2.62-7.8,6a3.08,3.08,0,0,0,1.42,3.47c3.33,1.42,7,3,9,6.17a13.61,13.61,0,0,1,1.48,10.71,3.08,3.08,0,0,0,5.94,1.64c1.58-4.75.54-10.83-1.9-15.12s-6.9-6.79-11.42-8.71l1.42,3.47c-.12.2-.09.14.11-.19-.11.19,0,.14.2-.15-.17.1-.1.05.22-.15a7.16,7.16,0,0,1,.66-.39,9.45,9.45,0,0,1,2.3-.83,18.25,18.25,0,0,1,5.76-.28,24.78,24.78,0,0,1,5.55,1,13.32,13.32,0,0,1,2.22.88,14.4,14.4,0,0,1,1.37.8c.06,0,.77.69.58.37L142,137c0-.3-.1.45-.14.58l-.35,1.1c-.24.72-.51,1.44-.78,2.16a3.09,3.09,0,0,0,2.15,3.78,3.15,3.15,0,0,0,3.79-2.15Z"/><path class="cls-5" d="M128.19,164.52a35.94,35.94,0,0,0,8.35-7.69l-4.83-3.73a9.78,9.78,0,0,1-1.09,1.65,12.79,12.79,0,0,1-1.76,1.69,3.09,3.09,0,0,0,3.73,4.84c3.14-2.09,4.45-5.46,6.59-8.39,1-1.43,2.4-3,3.41-4.64a50.5,50.5,0,0,0,2.72-5.21l-5.73-1.55.08,2h6.15l0-.5a3.1,3.1,0,0,0-2.67-3,3.05,3.05,0,0,0-3.38,2.2c-.48,2.25-2.2,4.42-3.64,6.51a41,41,0,0,1-4.92,6,3.08,3.08,0,0,0,4.35,4.35,49,49,0,0,0,5.88-7.28c1.71-2.46,3.63-5,4.27-8l-6.05-.82,0,.5a3.08,3.08,0,0,0,6.15,0l-.08-2a3.08,3.08,0,0,0-5.73-1.56,52.83,52.83,0,0,1-2.54,4.9,42.65,42.65,0,0,1-3.15,4.35,46.2,46.2,0,0,0-2.61,4,17.75,17.75,0,0,1-1.17,1.79c.31-.4-.42.43-.5.51s-.29.27-.44.4c.23-.17.2-.16-.1.05l3.73,4.84a16.06,16.06,0,0,0,3.81-4.59,3.08,3.08,0,0,0-.8-4c-1.1-.83-3.08-1-4,.24a31.12,31.12,0,0,1-7.11,6.72,3.15,3.15,0,0,0-1.1,4.21,3.11,3.11,0,0,0,4.21,1.11Z"/><path class="cls-5" d="M143.45,135.9c-5-1.91-10.23-3.78-15.68-3.4a3.08,3.08,0,0,0-1.55,5.74c2.29,1.29,4.62,2.53,6.84,3.94.52.33,1,.68,1.55,1l.75.56c-.53-.41.21.18.31.27s.47.39.69.6.23.22.34.34c-.2-.28-.23-.33-.11-.15s.1.13-.05-.2c.09.33.08.25,0-.24a1.56,1.56,0,0,1,.23-.82c.84-.66,1-.86.51-.61l1.55-.42,1.9,1.11-.09-.16c-.09-.2-.24-.4-.35-.59-.21-.36-.43-.71-.65-1.07-.42-.66-.86-1.31-1.31-2a8.17,8.17,0,0,0-2.22-2.52,3.49,3.49,0,0,0-4.71,1.31c-2.09,3.36-.66,7.32,1.09,10.45a3.11,3.11,0,0,0,4.21,1.11,3.18,3.18,0,0,0,1.11-4.21c.12.28.09.22,0,0s-.15-.43-.22-.65a12.23,12.23,0,0,1-.31-1.19c0-.18-.08-.36-.11-.54s-.05-.29,0,0c-.06-.46-.08-.91-.1-1.37a3.08,3.08,0,0,0-6.16,0,18.89,18.89,0,0,0,1.59,6.87l5.32-3.1c-.3-.53-.57-1.06-.84-1.6-.14-.32-.14-.31,0,0-.05-.12-.1-.24-.14-.36a6.09,6.09,0,0,1-.25-.86c0-.15-.07-.31-.1-.47l.05.34a2.27,2.27,0,0,1,0-1l-.05.35a3.57,3.57,0,0,1,.11-.47c.11-.33.09-.3-.06.07.17-.32.14-.29-.09.1l-1.35.79.19,0-2.37-.31c-.68-.74-.83-.88-.48-.43l.33.45.48.68c.34.49.68,1,1,1.5.74,1.15,1.37,2.73,2.64,3.41a3.91,3.91,0,0,0,5.28-1.73,4.89,4.89,0,0,0-.31-4.89,13.69,13.69,0,0,0-3.16-3c-.92-.7-1.87-1.36-2.85-2-2.12-1.32-4.33-2.5-6.5-3.73l-1.56,5.74a21.74,21.74,0,0,1,3.87.09c-.56-.06.07,0,.28.05l.82.15c.64.13,1.27.28,1.9.44a72.91,72.91,0,0,1,7.17,2.44,3.09,3.09,0,0,0,3.79-2.15,3.16,3.16,0,0,0-2.15-3.78Z"/><path class="cls-5" d="M119.3,138.12l-3.72-.75.46,1.13a10.19,10.19,0,0,1,2.7-3.48,9.47,9.47,0,0,1,1.77-1.16,3.71,3.71,0,0,1,2.23-.59.81.81,0,0,0,1-.54.79.79,0,0,0-.54-.95c-1.88-.34-3.8.81-5.23,1.93a11.36,11.36,0,0,0-3.21,4,.78.78,0,0,0,.46,1.13l3.72.76a.79.79,0,0,0,1-.54.78.78,0,0,0-.54-.95Z"/><path class="cls-5" d="M118.16,136.35h-1a1.1,1.1,0,0,0-.52.14.9.9,0,0,0-.43.77,1.24,1.24,0,0,0,.22.67,1.39,1.39,0,0,0,.51.45,1.42,1.42,0,0,0,.67.17,1.38,1.38,0,0,0,.66-.2,1.41,1.41,0,0,0,.45-.49,1.46,1.46,0,0,0,.17-.71,1.3,1.3,0,0,0-.21-.69.58.58,0,0,0-.2-.21.55.55,0,0,0-.26-.14.66.66,0,0,0-.31,0,.75.75,0,0,0-.29.09.8.8,0,0,0-.35.46l0,.21a.77.77,0,0,0,.11.39.39.39,0,0,1,.06.11l-.07-.19a.75.75,0,0,1,0,.16l0-.21v.16l0-.21a.84.84,0,0,1,0,.17l.08-.18a.57.57,0,0,1-.08.13l.12-.15-.1.1.16-.12a.67.67,0,0,1-.12.06l.19-.07-.13,0,.21,0h-.15l.2,0a.55.55,0,0,1-.17-.05l.19.08-.14-.08.15.12a.52.52,0,0,1-.1-.11l.12.16-.08-.12.08.18a.53.53,0,0,1,0-.12l0,.21a.13.13,0,0,1,0-.06l0,.2a0,0,0,0,1,0,0l-.08.18v0l-.12.16,0,0-.16.12,0,0-.19.08h.06l-.2,0h1a.75.75,0,0,0,.77-.77.77.77,0,0,0-.22-.54.85.85,0,0,0-.55-.23Z"/><path class="cls-5" d="M101,142.6a50.58,50.58,0,0,1,2.34-12.6.78.78,0,0,0-1.29-.75c-1.42,1.31-3.17,2.57-4.08,4.31-.28.54.2,1.38.87,1.13a6.51,6.51,0,0,0,3.05-2.3l-1.33-.78c-1.15,2.14-1.22,4.57-1.2,6.94a.77.77,0,0,0,1.54,0l.16-3.52a.78.78,0,0,0-1.31-.54,14.86,14.86,0,0,0-2.15,2.6l1.33.78,1.39-2.4A.77.77,0,0,0,99,134.7l-1.39,2.39a.77.77,0,0,0,1.33.78,12.69,12.69,0,0,1,1.91-2.29L99.56,135l-.16,3.52h1.54c0-2.09,0-4.27,1-6.16a.77.77,0,0,0-1.33-.78,4.7,4.7,0,0,1-2.13,1.6l.87,1.13c.84-1.61,2.53-2.79,3.84-4l-1.29-.75a52.84,52.84,0,0,0-2.39,13c0,1,1.49,1,1.54,0Z"/><path class="cls-5" d="M103,129.28a.38.38,0,0,0,0-.75.38.38,0,0,0,0,.75Z"/><path class="cls-5" d="M103.18,128.68a.38.38,0,0,0,0-.75.38.38,0,0,0,0,.75Z"/><path class="cls-5" d="M102.5,128.29c-.13.36-.27.71-.41,1.06l-.21.52-.06.15s0,0,0,0l-.11.26c-.3.69-.61,1.38-1,2.05a.8.8,0,0,0,.28,1.06.78.78,0,0,0,1-.28,46.66,46.66,0,0,0,1.9-4.42.76.76,0,0,0-.53-.94.79.79,0,0,0-1,.53Z"/><path class="cls-5" d="M56.14,140.62c2.17,3.92,6.88,5.39,11,5.94a26.77,26.77,0,0,0,14.4-2.12c.9-.4.12-1.73-.78-1.33a25.18,25.18,0,0,1-13,2c-3.81-.42-8.36-1.66-10.35-5.26-.48-.87-1.81-.09-1.33.78Z"/><path class="cls-5" d="M83.14,143.44A15.82,15.82,0,0,0,77,145.39a.77.77,0,0,0,.59,1.4,8.44,8.44,0,0,1,1.8-.22l-.2-1.51q-2.77.58-5.55,1.08a.77.77,0,0,0,.4,1.49q2.79-.49,5.56-1.08a.78.78,0,0,0-.21-1.52,10.29,10.29,0,0,0-2.21.28l.6,1.41A14.07,14.07,0,0,1,83.14,145a.79.79,0,0,0,.77-.76.76.76,0,0,0-.77-.77Z"/><path class="cls-5" d="M56.5,142.32l.75,3.55c.24,1.1.42,2.24.75,3.32a10,10,0,0,0,1.41,2.74,8,8,0,0,0,2,2.21.77.77,0,0,0,1.16-.66,16.35,16.35,0,0,0-1-5.46,17,17,0,0,0-1.16-2.53,14.74,14.74,0,0,1-1.32-2.27.77.77,0,0,0-1.48.41,13.16,13.16,0,0,0,1.88,5.49.78.78,0,0,0,1.41-.18,4.68,4.68,0,0,0-.26-2.74,4.62,4.62,0,0,1-.47-2.55l-1.29.34A36.14,36.14,0,0,0,62,146.36l.78-1.33a33.82,33.82,0,0,0-3.89-1.48.77.77,0,0,0-.59,1.41,39,39,0,0,0,4,2c.9.4,1.68-.93.78-1.33a37.09,37.09,0,0,1-4-2.05l-.6,1.41A27.6,27.6,0,0,1,62,146.36a.77.77,0,0,0,.78-1.33A31.05,31.05,0,0,1,60,142.9a.78.78,0,0,0-1.28.34,4.67,4.67,0,0,0,.25,2.74,4.48,4.48,0,0,1,.47,2.55l1.41-.18a12.27,12.27,0,0,1-1.73-5.13l-1.48.41a12.31,12.31,0,0,0,1.27,2.3A14.51,14.51,0,0,1,61,153.48l1.16-.67a7.29,7.29,0,0,1-1.64-2,8.19,8.19,0,0,1-1.2-2.66c-.49-2.07-.89-4.17-1.34-6.26-.21-1-1.69-.56-1.48.41Z"/><path class="cls-5" d="M83.58,75.82l1.37-1a.78.78,0,0,0,.35-.46.77.77,0,0,0-.08-.59.74.74,0,0,0-.46-.35.72.72,0,0,0-.59.08l-1.37,1a.8.8,0,0,0-.35.46.83.83,0,0,0,.07.6.8.8,0,0,0,.46.35.78.78,0,0,0,.6-.08Z"/><path class="cls-5" d="M83.35,75.84a4.34,4.34,0,0,0,2.11-.34,4.88,4.88,0,0,0,.81-.56l.86-.66a.81.81,0,0,0,.36-.87.81.81,0,0,0-.75-.57,6.24,6.24,0,0,0-1.43.07,2.87,2.87,0,0,0-1.3.63,9.93,9.93,0,0,0-.73.72l-.19.17c-.13.11,0,0,0,0l-.1.07-.1.06c-.12.07.11,0,0,0a2.44,2.44,0,0,1-.26.06l.41,1.49,2.28-.62a2.86,2.86,0,0,0,1.9-1.06A.8.8,0,0,0,87,73.35a.79.79,0,0,0-1,.28c0,.07,0,.06,0,0l-.07.08c-.11.11.12-.06,0,0s-.21.12-.11.07-.1,0-.12,0c-.3.1-.6.17-.91.25l-2,.55a.78.78,0,0,0-.54,1,.81.81,0,0,0,.95.54c.79-.11,1.29-.77,1.83-1.28l.18-.16c.07-.07-.13.08,0,0l.11-.07.13-.08c.13-.07-.06,0,0,0l.28-.08.15,0c.09,0-.13,0,0,0l.32,0,.65,0L86.35,73l-.76.59a8.79,8.79,0,0,1-.79.57s-.25.12-.09.06l-.18.06-.19,0-.13,0h0c-.3,0-.6,0-.9,0a.77.77,0,0,0,0,1.54Z"/></g><g id="S-3" data-name="S"><path class="cls-6" d="M91.25,55.31c-2.52,0-5.31-.54-7.58.81A15.2,15.2,0,0,0,79,60.89c-1.41,2.12-2.54,4.42-3.87,6.6-1.61,2.63-3.45,5.11-5.14,7.68-1.21,1.84-2.64,4.15-1.59,6.4.93,2,3.64,2.63,5.62,2.59,2.6-.06,4.59-1.49,6.75-2.75,2.64-1.53,5.61-2.13,8.44-3.17a12.77,12.77,0,0,0,6.14-4.15c1.8-2.48,1.35-5.46,1.62-8.34.06-.59-.86-.59-.92,0-.23,2.4.18,5-1.06,7.2a10.41,10.41,0,0,1-5.24,4.1c-2.13.88-4.39,1.37-6.55,2.19a57.67,57.67,0,0,0-5.65,3c-2.23,1.15-5.3,1.52-7.45-.08-2.68-2,0-5.44,1.26-7.39,2.57-3.82,5-7.64,7.31-11.61a19,19,0,0,1,4.46-5.57,6,6,0,0,1,3.9-1.44c1.4,0,2.79.05,4.19.08a.47.47,0,0,0,0-.93Z"/><path class="cls-6" d="M91.81,56c4.42-3.32,8.72-7.34,14.37-8.21,5.84-.9,12.64.07,16.71,4.63a32.42,32.42,0,0,1,6.92,29.2.46.46,0,0,0,.89.25c2.69-10.6,0-22.56-7.6-30.59-3.93-4.16-10.24-5.07-15.73-4.56-6.46.6-11,4.75-16,8.48-.47.35,0,1.15.47.8Z"/><path class="cls-6" d="M97.13,66.54c2-5.78,11.06-7.37,15.73-4.32,4.87,3.18,4.64,10,3.75,15.14-1,5.53-3.86,9.54-8.19,13a63.69,63.69,0,0,1-15.24,8.88c-.54.22-.3,1.12.25.89A62.87,62.87,0,0,0,111.1,89.3c4.67-4.13,6.69-10,6.84-16.08.06-2.8,0-6-1.42-8.5a10.26,10.26,0,0,0-5.79-4.51c-5-1.56-12.68.75-14.49,6.08-.19.57.7.81.89.25Z"/><path class="cls-6" d="M129.85,81.4c-.35,2.56-1.73,4.64-3.14,6.75s-2.66,3.92-4.08,5.82a54.88,54.88,0,0,1-10,10.69c-3.87,3-8.31,5.25-12.54,7.74a83,83,0,0,0-11.81,8.79c-.45.38.2,1,.65.65a86.11,86.11,0,0,1,13.56-9.75c4.19-2.39,8.44-4.7,12.12-7.86a61.16,61.16,0,0,0,9.25-10.36c2.62-3.57,6.28-7.7,6.89-12.22.08-.58-.81-.83-.89-.25Z"/><path class="cls-6" d="M93.63,99.36a59.2,59.2,0,0,0-28.37,19c-3.6,4.42-6.92,9.44-8.19,15.07-1.21,5.38-1.77,12.55,1,17.53.29.51,1.08.05.79-.47C56,145.42,56.8,137.35,58.42,132s5.28-10.49,9-14.72a58.31,58.31,0,0,1,26.43-17c.56-.17.32-1.07-.25-.89Z"/><path class="cls-6" d="M88.09,121.22c-3.89,4.23-10.68,10.66-8.22,17.08s9.52,3.25,13.25.21c5.54-4.51,9.85-10.3,15.33-14.87,6.84-5.7,15-7.55,23.72-7.23.59,0,.59-.9,0-.92-6.21-.23-12.54.44-18.14,3.29-5.09,2.58-9.14,6.71-13,10.79-2,2.1-4,4.23-6.15,6.21-2.56,2.37-5.79,5.47-9.52,5.39-5.57-.12-5.71-6.47-3.75-10.18,1.78-3.37,4.6-6.33,7.16-9.12.4-.43-.25-1.09-.65-.65Z"/><path class="cls-6" d="M132,116.46c9.9,0,16,9.38,15.68,18.58-.34,9.44-6.26,17.38-12.74,23.74-.43.42.23,1.07.65.66,7.12-7,13.59-16,13-26.5-.52-9-7.06-17.4-16.59-17.41a.47.47,0,0,0,0,.93Z"/><path class="cls-6" d="M82.31,150.65c-2.63,2.54-2.51,6.73-1.94,10.07a17.25,17.25,0,0,0,5.15,9.89c.44.4,1.1-.25.66-.65a16.23,16.23,0,0,1-4.81-8.89c-.63-3.13-.91-7.35,1.59-9.77.43-.41-.22-1.06-.65-.65Z"/><path class="cls-6" d="M82.63,151.2c.82.49.36,2.83.47,3.67a12.7,12.7,0,0,0,1,3.47,17.38,17.38,0,0,0,4.67,6.15,26.45,26.45,0,0,0,6.41,4.22A20.64,20.64,0,0,0,103,170a11.86,11.86,0,0,0,11.26-6.37,11.52,11.52,0,0,0,1.58-6.29c-.22-1.91-2.15-3.12-4-3.3a2.32,2.32,0,0,0-2.69,2.86c.6,2.5,3.38,2.7,5.49,2.65a.47.47,0,0,0,0-.93c-1.45,0-3.49.14-4.34-1.32a1,1,0,0,1,.19-1.47c.16-.88.69-1.16,1.58-.83a4.15,4.15,0,0,1,2,.94c2,1.77.24,5.76-.85,7.64a11.13,11.13,0,0,1-4.75,4.54c-2.43,1.16-5.16,1-7.78.83a15.6,15.6,0,0,1-7.53-2.37A26.1,26.1,0,0,1,87.5,162a13.84,13.84,0,0,1-3.43-6.78c-.23-1.41.51-3.92-1-4.81a.46.46,0,0,0-.47.8Z"/><path class="cls-6" d="M127.44,165.65c2.88-4.41,3.78-10.77,2.76-15.9-1.08-5.48-6.25-8.54-11-10.48-5.61-2.28-11.32-1-16.36,2.14-4.44,2.77-6.42,7.41-6.88,12.48-.51,5.6.85,12.49,6.22,15.48.52.29,1-.51.47-.8-5.85-3.26-6.61-11.28-5.41-17.15A14.2,14.2,0,0,1,101,144a20,20,0,0,1,8.94-4.61c3.74-.91,7.06-.11,10.49,1.45a17.36,17.36,0,0,1,7.35,5.52c2,2.88,2,6.42,1.71,9.77a19.06,19.06,0,0,1-2.82,9.09c-.33.5.47,1,.79.47Z"/><path class="cls-6" d="M102.43,169.47l1,.28a.51.51,0,0,0,.36-.05.54.54,0,0,0,.21-.28.48.48,0,0,0,0-.35.47.47,0,0,0-.27-.21l-1-.28a.45.45,0,0,0-.57.32.46.46,0,0,0,0,.36.44.44,0,0,0,.27.21Z"/><path class="cls-6" d="M121.28,140.21a4.29,4.29,0,0,1,2.83-3.24c1.42-.55,3.48-.88,4.85-.06s1.18,2.65.41,3.87a4.22,4.22,0,0,1-3.41,2,.47.47,0,0,0,0,.93,5.11,5.11,0,0,0,4.94-5.27c-.35-3.58-5.23-3.21-7.59-2.1a5.08,5.08,0,0,0-2.92,3.66c-.1.58.79.83.89.24Z"/><path class="cls-6" d="M81.93,75.92a9.59,9.59,0,0,1,2.76-2.32,3.23,3.23,0,0,1,3.12,0c.5.32,1-.48.46-.8a4.11,4.11,0,0,0-3.77-.14,9.6,9.6,0,0,0-3.22,2.59c-.4.44.25,1.09.65.65Z"/><path class="cls-6" d="M82,76.3a9.13,9.13,0,0,0,3.75-.39,5.61,5.61,0,0,0,2.56-2.13c.32-.5-.48-1-.8-.46a4.55,4.55,0,0,1-2.17,1.77,9.15,9.15,0,0,1-3.34.29.46.46,0,0,0,0,.92Z"/><path class="cls-6" d="M72.61,82.11c.92-.12,1.85-.19,2.78-.22a.47.47,0,0,0,.47-.46.47.47,0,0,0-.47-.46,25.81,25.81,0,0,0-2.78.21.48.48,0,0,0-.47.46c0,.23.21.5.47.47Z"/><path class="cls-6" d="M68.81,78.59l.09.45,0-.13a3.76,3.76,0,0,1,0,.75A.45.45,0,0,0,69,80a.47.47,0,0,0,.79-.33,4.11,4.11,0,0,0-.13-1.31.48.48,0,0,0-.57-.33.47.47,0,0,0-.32.57Z"/></g><g id="S-4" data-name="S"><path class="cls-2" d="M102.81,178.21l-.29-.08c-.41-.1-41.68-10.71-54-39.58l-.2-.44.23-.43c.08-.17,8.57-17-.7-38.48-9.67-22.39-3.67-34.86-3.41-35.38l.32-.65.72.09c4.39.54,16.47.95,19.54-3.66,2.79-4.18,2.31-18.72,1.88-24l0-.6.5-.34c12.29-8.19,33.23-14.94,34.11-15.23l.29-.09.3.08a148.4,148.4,0,0,1,34.13,15.23l.68.43-.25.76c0,.12-3.93,12.09,0,21.87,3.72,9.32,19.16,5.58,19.32,5.54l.63-.16.41.51c.32.39,7.62,9.91-2.3,37.37-9.46,26.18.08,36.33.18,36.43l.53.54-.35.67c-.15.27-15,27.17-51.88,39.47Zm-52.26-40c11.65,26.37,48.56,36.92,52.19,37.9,32.82-11,47.68-33.81,50.08-37.8-2.06-2.63-8.88-13.74-.13-38,8.28-22.91,4.22-32.64,3-34.87-3.35.7-17.07,2.88-21-6.93-3.64-9.11-1.1-19.57-.26-22.5a147,147,0,0,0-32.63-14.49C99.18,22.36,80.29,28.7,69,36.07c.24,3.4,1.16,19.53-2.26,24.67-3.92,5.87-17.3,5-20.72,4.64-1,2.77-4.33,14.36,3.72,33C58.62,119.06,51.92,135.25,50.55,138.17Z"/></g></svg>