<svg xmlns="http://www.w3.org/2000/svg" width="120" height="120" viewBox="0 0 120 120"><defs><style>.cls-1{fill:#757576;}.cls-2{fill:#231f20;}.cls-3{fill:#fff;}</style></defs><g id="Layer_2" data-name="Layer 2"><rect class="cls-1" x="5.86" y="5.86" width="108.29" height="108.29" rx="19.32"/><path class="cls-2" d="M94.82,115.14H25.18A20.34,20.34,0,0,1,4.86,94.82V25.18A20.34,20.34,0,0,1,25.18,4.86H94.82a20.34,20.34,0,0,1,20.32,20.32V94.82A20.34,20.34,0,0,1,94.82,115.14ZM25.18,6.86A18.34,18.34,0,0,0,6.86,25.18V94.82a18.34,18.34,0,0,0,18.32,18.32H94.82a18.34,18.34,0,0,0,18.32-18.32V25.18A18.34,18.34,0,0,0,94.82,6.86Z"/></g><g id="Layer_3" data-name="Layer 3"><path class="cls-2" d="M20,110.09c.24-4.51,2.75-7,6.63-9S35,97.79,38.92,95.36l-3.67-2.83c-.06.31-.13.61-.21.91,0,0-.16.66-.08.34a1.1,1.1,0,0,1-.2.37s.62-.54.48-.47l1.26-.35h-.06l1.26.34.43.32.64,1.11a2.53,2.53,0,0,1,0,.91c0-.39-.14.22,0-.06a6.53,6.53,0,0,1,.64-1L35.16,93.2c-.62,7.93,6.62,13.07,11.07,18.57a2.53,2.53,0,0,0,2.43.64A34.91,34.91,0,0,0,75.77,88L72.1,89.47c.18.11.86.6.74.5.13.11.25.24.38.36S73,90,73.1,90.19a2.12,2.12,0,0,1,.08-1.68,1.93,1.93,0,0,1,1.16-1.26c-.23.08.64,0,.37,0s-.37-.1.27.06c-.4-.1-.35-.17,0,.06-.49-.32.24.25,0,0a1.3,1.3,0,0,1,.4,1.21c-.09.59-.22.49.14,0l-3.42.9C78,93.41,84.92,95,91.43,97.55a13.24,13.24,0,0,1,6.37,4.64,15.56,15.56,0,0,1,2.64,7.59,2.56,2.56,0,0,0,2.5,2.5,2.51,2.51,0,0,0,2.5-2.5c-.54-6.61-3.86-13.13-10.13-16-6.82-3.11-14.38-4.43-20.68-8.65a2.57,2.57,0,0,0-3.42.9c-2.09,2.74.3,6.16,3.45,6.15a3.06,3.06,0,0,0,3.21-2.94c0-1.93-1.8-3.18-3.24-4.11A2.53,2.53,0,0,0,71,86.65a30,30,0,0,1-23.61,20.94l2.43.64c-3.53-4.35-10.1-8.79-9.61-15,.16-2.07-2.92-3.44-4.27-1.77s-3.49,5-.73,6.56,4.48-2,4.91-4.13-1.7-4-3.67-2.82c-4.23,2.6-8.91,3.7-13.3,6.21a17.43,17.43,0,0,0-5.68,5A14.65,14.65,0,0,0,15,110.09c-.17,3.22,4.83,3.21,5,0Z"/><path class="cls-2" d="M34.11,96.49c-3.23,1.83-6.41,3.77-9.51,5.81a2.5,2.5,0,1,0,2.52,4.31q4.66-3,9.51-5.8a2.5,2.5,0,1,0-2.52-4.32Z"/><path class="cls-2" d="M29.61,97.88a20.25,20.25,0,0,0-9.76,7.59,28.44,28.44,0,0,1-2.08,3.41,2.53,2.53,0,0,0,1.1,4.18,51,51,0,0,0,12.49,1.47q6.64.16,13.29.19,13.32.07,26.64-.34c3.21-.1,3.22-5.1,0-5q-13.08.41-26.15.34-6.42,0-12.83-.17a48.35,48.35,0,0,1-12.11-1.31l1.1,4.18c1.68-1.79,2.45-4.18,4.16-6a15.14,15.14,0,0,1,5.48-3.73,2.59,2.59,0,0,0,1.75-3.08,2.53,2.53,0,0,0-3.08-1.75Z"/><path class="cls-2" d="M99.9,107.93c-1.17,1.15-3.39.81-4.88.8l-7.35-.08-15.18-.17a2.53,2.53,0,0,0-2.16,3.76A3.72,3.72,0,0,0,72.46,114a2.52,2.52,0,0,0,3.08-1.75,2.56,2.56,0,0,0-1.75-3.08l-.27-.1,1.1.64,0,0-2.16,3.76,16.65.18c2.58,0,5.18.12,7.76.07a9.14,9.14,0,0,0,6.54-2.27c2.3-2.26-1.24-5.79-3.54-3.53Z"/><path class="cls-2" d="M73.49,113.73a93.81,93.81,0,0,0,16.59.24,2.5,2.5,0,1,0,0-5,93.81,93.81,0,0,1-16.59-.24,2.51,2.51,0,0,0-2.5,2.5,2.57,2.57,0,0,0,2.5,2.5Z"/><path class="cls-2" d="M96.55,98.25c-3.08-2-6.83-2.75-10.29-3.91A88.18,88.18,0,0,1,75.8,90a2.53,2.53,0,0,0-3.67,1.49,45.89,45.89,0,0,0-1,16,2.58,2.58,0,0,0,2.5,2.5q10.31.58,20.63.88a14.31,14.31,0,0,0,4.48-.15,3.92,3.92,0,0,0,2.85-3.76c0-1.7-1.08-3.07-2.07-4.34A35.31,35.31,0,0,0,96.16,99c-1.43-1.4-4.47-.49-4.26,1.76a12.68,12.68,0,0,1-.52,5l4.18-1.11c-1.32-1.64-2.6-3.33-4-4.94s-3.35-2.32-5.2-1.18c-3.25,2-3.23,7.28.18,9.09a5.26,5.26,0,0,0,5.1-.11,3.77,3.77,0,0,0,1.44-5.35C92,100.47,89.89,100,88,99.93c-.71,0-1.41,0-2.12-.05-1.16-.1,0-.16-.15.07-.37.49.93.1-.52,1l-3-3.93a5.64,5.64,0,0,0-1.73,5.6,9.07,9.07,0,0,0,3.5,4.91l3-3.92a9.4,9.4,0,0,1-4-6.09c-.47-2.26-3.44-2.24-4.57-.6a9.19,9.19,0,0,0-.44,9.4l4.31-2.53a15.74,15.74,0,0,1-1.75-7A2.53,2.53,0,0,0,76.18,95c-1.71,1.68-1.47,3.75-1.46,5.94a3.62,3.62,0,0,1-2.54,3.23c-2.12.92-4.66,1-6.92,1.21l-8,.89L58,111.2c6.63-1.91,10.42-7.76,16-11.4l-3.42-3.42A37.81,37.81,0,0,1,66.44,103a2.55,2.55,0,0,0-.51,2.73,2.48,2.48,0,0,0,2.28,1.54,11,11,0,0,0,6.22-2.54,2.52,2.52,0,0,0,0-3.54,2.56,2.56,0,0,0-3.53,0,5.1,5.1,0,0,1-2.69,1.08L70,106.57a42.73,42.73,0,0,0,4.84-7.67c1-2.08-1.16-4.91-3.42-3.42a64.66,64.66,0,0,0-7.47,6.26,18.9,18.9,0,0,1-7.28,4.64,2.5,2.5,0,0,0,.66,4.91l8.69-1c2.65-.29,5.41-.44,7.91-1.46A9.29,9.29,0,0,0,79,104.28a7.87,7.87,0,0,0,.69-3.68c0-.52-.2-1.83,0-2l-4.27-1.77a21.34,21.34,0,0,0,2.44,9.58c1.48,2.86,5.77.34,4.31-2.53a4.16,4.16,0,0,1,.45-4.34l-4.57-.6A14.42,14.42,0,0,0,84.43,108c2.33,1.53,5.26-2.13,3-3.92-.74-.6-1.83-1.36-2.13-2.33a.84.84,0,0,1,.37-1.12c2.23-1.75-.67-5.45-3-3.92a4.31,4.31,0,0,0-.43,6.82,6.37,6.37,0,0,0,4.15,1.43c.65,0,1.31,0,2,0a3.18,3.18,0,0,0,.43.06c.63-.07.29.5.1-.2v-1.33c.15-.75.48.15.06-.2.17.14-.07-.2-.09-.1a1.38,1.38,0,0,0,.24-.41c.32-.27.09-.29-.68-.06-.78-.16-1-.1-.68.17.06.17.38.43.49.58.41.5.81,1,1.22,1.52L92,108.2c1.25,1.55,3.67.52,4.18-1.1a16.6,16.6,0,0,0,.7-6.38l-4.27,1.77c.87.84,1.7,1.72,2.48,2.64a17.19,17.19,0,0,1,1.12,1.43c0,.08.26.51.33.53s.91-1.08.83-1.15A6.86,6.86,0,0,0,96,106l-2-.06c-1.4,0-2.79-.08-4.18-.13q-8.11-.27-16.21-.74l2.5,2.5A41.9,41.9,0,0,1,77,92.84l-3.67,1.5a96.77,96.77,0,0,0,10.77,4.51c3.3,1.16,7,1.75,10,3.71,2.69,1.79,5.2-2.54,2.53-4.31Z"/><path class="cls-2" d="M43.84,106.52a30.91,30.91,0,0,1-5.13-1,6.62,6.62,0,0,1-2.94-1.45,1,1,0,0,1-.35-.46q-.11-.23,0,0c-.08-.33-.11-.35-.07-.07,0-.3,0-.32,0,0a1.4,1.4,0,0,1-1.38.87l-.75-.26.47.45a34.64,34.64,0,0,1,3.4,3.86,2.54,2.54,0,0,0,3.93.51c3.79-3.67-2.18-7.7-4.62-9.89a2.52,2.52,0,0,0-3.92.5,7,7,0,0,1-5.1,3.07c-1.2.23-2.41.13-3.61.26a3.26,3.26,0,0,0-3,3.89c.77,3.51,4.8,2.87,7.5,3a45,45,0,0,1,8.17,1.28c3.13.77,4.46-4,1.33-4.82A52.73,52.73,0,0,0,30.5,105c-1.1-.12-2.2-.21-3.3-.25-.58,0-1.17,0-1.75,0a2.7,2.7,0,0,0-.85,0c-.33,0-.23.06.31.3a1,1,0,0,1,.7.86l-.34,1.26-.06.12-1.1.64c-.14,0-.12-.07.06,0h.34l.92,0c.61,0,1.23-.08,1.84-.16a15.7,15.7,0,0,0,4.1-1,11,11,0,0,0,5.38-4.55l-3.93.5,2.94,2.66c.4.36.82.72,1.2,1.09.12.12.33.24.26.27-.23.09.14-1.12.21-1.19l3.93.5c-.89-1.18-1.81-2.34-2.81-3.44a10.64,10.64,0,0,0-3.13-2.74c-3.22-1.48-5.71,2-4.94,5,1.43,5.44,8.75,6.34,13.36,6.83a2.51,2.51,0,0,0,2.5-2.5,2.55,2.55,0,0,0-2.5-2.5Z"/><path class="cls-3" d="M74.62,82.82a42.22,42.22,0,0,0-1.17-9.5A2.51,2.51,0,0,0,71,71.49a13.35,13.35,0,0,0-7.78,4,79.06,79.06,0,0,0-6.39,7,21.12,21.12,0,0,0-2.4,3.82,3.47,3.47,0,0,1-.46.79c-.13.12.18,0,0,0a2.3,2.3,0,0,1-1.35-.33c-2.76-1.33-5.21-3.85-7.31-6a2.52,2.52,0,0,0-4.18,1.1q-.95,3.54-1.87,7.07c-.58,2.2-1.13,4.47-.48,6.72,1,3.43,4.15,5.07,6.35,7.61,1.16,1.34,1.43,3.16,3.22,4,2.18,1,4.63-.47,6.6-1.38,3.81-1.75,8-4,10.84-7.1a20.6,20.6,0,0,0,3.72-6.7c1-2.62,2-5.25,3.07-7.87a2.52,2.52,0,0,0-1.75-3.08,2.57,2.57,0,0,0-3.08,1.75l-2.88,7.4A14.65,14.65,0,0,1,61.59,96a27.09,27.09,0,0,1-5.5,3.74c-1,.59-2.11,1.14-3.19,1.65-.54.25-1.08.5-1.63.73a6.85,6.85,0,0,0-1.22.47c-.53.11-.26.26.79.44-.11-.2-.22-.4-.31-.61a12.57,12.57,0,0,0-.62-1.14,14.45,14.45,0,0,0-1.85-2.21,36,36,0,0,1-3.75-3.55c-1.09-1.4-.74-3-.29-4.74q1-3.76,2-7.54l-4.18,1.1c3.68,3.76,12.64,12.43,16.86,4.7A20.1,20.1,0,0,1,61,85.42c1.25-1.45,2.56-2.86,3.84-4.28,1.62-1.79,3.66-4.34,6.24-4.65l-2.41-1.84a36.3,36.3,0,0,1,1,8.17c0,3.22,5,3.22,5,0Z"/><path class="cls-3" d="M68.85,82.15a11.29,11.29,0,0,1-.27,1.15c-.06.21,0,.29,0,0,0,.26-.14.17.16,0l3.76,2.16.45-5c.15-1.76.26-3.73-1.48-4.79-3-1.84-5.86,2.4-7.19,4.56a55.15,55.15,0,0,0-3.15,6.58c-.51,1.14-1,2.27-1.63,3.36a16.65,16.65,0,0,1-1.82,2.74,2.55,2.55,0,0,0,0,3.53,2.53,2.53,0,0,0,3.54,0A44.41,44.41,0,0,0,67,88.57,29.14,29.14,0,0,0,68.86,84a11.5,11.5,0,0,1,1.69-3.66,2.5,2.5,0,0,0-.39-3,2.61,2.61,0,0,0-3-.39,18.17,18.17,0,0,0-7.48,5.42,40.89,40.89,0,0,0-2.3,3.75L54.9,90.27c-1.63,2.78,2.69,5.3,4.31,2.52,1.46-2.48,2.8-5.07,4.41-7.44A8.59,8.59,0,0,1,66,83.2a24.39,24.39,0,0,1,3.67-2l-3.42-3.42c-1.74,2.38-2.17,5.54-3.41,8a36.4,36.4,0,0,1-5.16,7.1l3.54,3.53a34.19,34.19,0,0,0,5-8.94,41.2,41.2,0,0,1,2.11-4.33c.21-.35.42-.69.64-1,.11-.17.23-.33.35-.5.42-.62-.15.17.12-.16a11.45,11.45,0,0,1,.79-.91c.14-.15.29-.29.43-.43l.18-.17c.47-.39.2-.29-.8.28l-1.27-.34a1.24,1.24,0,0,1-.71-1.08c0-.2,0-.17,0,.08s0,.59-.07.88l-.17,1.84-.34,3.86c-.16,1.78,2.29,3.26,3.76,2.16a6.28,6.28,0,0,0,2.42-4.14,2.56,2.56,0,0,0-1.75-3.07,2.51,2.51,0,0,0-3.07,1.74Z"/><path class="cls-3" d="M69.85,74.11a33.63,33.63,0,0,0-10.17,7.23,35,35,0,0,0-4,5c-.56.85-1.09,1.73-1.57,2.63-.24.46-.47.92-.68,1.38-.11.23-.22.46-.32.7s-.17.37.14,0l1.26-.34c.33,0-.58-.16-.66-.18l-.78-.26a13.77,13.77,0,0,1-1.85-.8,17.36,17.36,0,0,1-3.39-2.25c-1.1-1-3.2-1.07-3.93.5a11.76,11.76,0,0,0-.09,9.91,2.48,2.48,0,0,0,2.5,1.19A2.57,2.57,0,0,0,48.38,97l1.31-3.25L46,95.23c-.49-.26-.25-.6-.51.36A7.42,7.42,0,0,0,45.19,98,4.16,4.16,0,0,0,48,101.74a3.65,3.65,0,0,0,4.15-1.82,4.79,4.79,0,0,0,.57-2.19,12.81,12.81,0,0,1-.22-2.11l-.65,1.11.17-.14-1.77.73-.21,0L49,96.65l-.09-.07-.34-1.26c.2,1.79-.4,3.63-.17,5.42.34,2.6,2.83,3.14,4.92,2.22a8,8,0,0,0,3.53-3.15,7.58,7.58,0,0,0,.88-2.24,3.65,3.65,0,0,0,.18-1.28c-.16-.48.4-.18-.28.16L53.92,95A6.57,6.57,0,0,1,54,97.41a2.54,2.54,0,0,0,2.41,3.16A4.56,4.56,0,0,0,60.51,98a12.21,12.21,0,0,0,.8-2.11c.1-.29.4-.73.15-.66,3.1-.85,1.78-5.67-1.33-4.82a5,5,0,0,0-3.25,3.09c-.24.59-.38,1.23-.62,1.82-.4,1-.45.27.14.29l2.41,3.17a13,13,0,0,0-.07-5.12,2.53,2.53,0,0,0-3.67-1.49c-1.72.84-1.87,2.52-2.2,4.12a2.84,2.84,0,0,1-2.15,2.32H52l-.29-.06,1.11.65-.2-.22.64,1.11a13.11,13.11,0,0,1,.18-2.72,6.25,6.25,0,0,0-.29-3.27c-1.2-2.37-4.83-2.32-5.52.43a6.06,6.06,0,0,0,.08,3.08c.23.63,3-.74,2.41.13a5.45,5.45,0,0,0,.29-1.19c.53-2.09.18-4.5-1.91-5.6a2.54,2.54,0,0,0-3.67,1.49l-1.31,3.25,4.57-.59a6.26,6.26,0,0,1,.09-4.86l-3.92.5a22.47,22.47,0,0,0,8.62,4.72,3.58,3.58,0,0,0,4.51-1.86c.66-1.32,1.27-2.64,2-3.9A29.57,29.57,0,0,1,72.37,78.43a2.52,2.52,0,0,0,.9-3.42,2.56,2.56,0,0,0-3.42-.9Z"/><path d="M47.29,80.06a33.93,33.93,0,0,1,.07-4.62,2.5,2.5,0,0,0-4.27-1.76l-.39.5a2.43,2.43,0,0,0-.34,1.26,33.93,33.93,0,0,0-.07,4.62A2.57,2.57,0,0,0,43,81.82a2.47,2.47,0,0,0,3.53,0,2.49,2.49,0,0,0,.74-1.76Z"/><path d="M70.24,70.49A19.07,19.07,0,0,1,70.13,67c.17-2.79-4.37-3.45-4.91-.67a5.42,5.42,0,0,1-3.06,4C60,71.45,61,75.32,63.42,75a7.82,7.82,0,0,0,3.72-1.25l-2.52-4.32c-5.49,3.79-9.49,9-13.42,14.35L54,82.68a71.86,71.86,0,0,1-7.77-3.59c-2.84-1.51-5.37,2.81-2.52,4.32a82.16,82.16,0,0,0,9,4.09,2.55,2.55,0,0,0,2.82-1.15c3.39-4.57,6.9-9.3,11.63-12.56a2.56,2.56,0,0,0,.9-3.42,2.52,2.52,0,0,0-3.42-.9,2.72,2.72,0,0,1-1.2.57l1.27,4.66a10.09,10.09,0,0,0,5.35-7L65.13,67a19.07,19.07,0,0,0,.11,3.46,2.58,2.58,0,0,0,2.5,2.5,2.51,2.51,0,0,0,2.5-2.5Z"/><path d="M46.25,77.18a27.46,27.46,0,0,0,13.32-1.93c4-1.66,8.31-4.22,10.16-8.31a2.58,2.58,0,0,0-.89-3.42,2.51,2.51,0,0,0-3.42.9c-1.42,3.11-4.78,5.09-7.86,6.28a24,24,0,0,1-11.31,1.48,2.51,2.51,0,0,0-2.5,2.5,2.55,2.55,0,0,0,2.5,2.5Z"/><path d="M45.55,71c-6.43-4.47-10-12.17-10.88-19.82A41.92,41.92,0,0,1,35.2,38c.8-3.77,2.46-7,5.73-9.16,6-4,14.16-5.34,21-2.68C69.07,29,72.85,36.39,74,43.62a48.47,48.47,0,0,1-.16,15.11,10,10,0,0,1-2.39,5.56,24,24,0,0,1-5.23,3.82c-2.76,1.65-.25,6,2.52,4.31,4-2.42,7.85-5.16,9.35-9.85a33.88,33.88,0,0,0,1.15-7.7A57.73,57.73,0,0,0,79.39,47c-.57-9.3-4.27-19-12.65-24C59,18.43,49.08,19.11,41.19,23A18.84,18.84,0,0,0,31.6,32.7c-1.84,4.48-2.26,9.68-2.18,14.48.19,10.9,4.45,21.72,13.61,28.1a2.53,2.53,0,0,0,3.42-.9,2.55,2.55,0,0,0-.9-3.42Z"/><path d="M66.13,26.24a25.21,25.21,0,0,0-14.29-3.16,48,48,0,0,0-7.19.88,14.51,14.51,0,0,0-9.07,6.25c-2.91,4.45-2.15,9.62-1.78,14.58l1,12.76,18.63-5-.67-1C50,47.33,45,45.41,40.24,47.41a9.56,9.56,0,0,0-4.78,4.09c-1.18,2.24-2,5.24-1,7.71l2,5.18a17.76,17.76,0,0,0,2.42,4.73,10.85,10.85,0,0,0,7.47,4.25c4.72.64,9.87-.35,14.54-1L53.18,54.06a26.11,26.11,0,0,0-7.58,7.59,21,21,0,0,0-3.15,8c-.41,2.63-.52,5.34,1,7.7a10.35,10.35,0,0,0,4.78,4.09c4.34,1.83,10.22.37,12.49-4.09A35.13,35.13,0,0,1,63.94,72l-1.56,2a14.34,14.34,0,0,1,2.24-2.3l-2,1.56A10.66,10.66,0,0,1,64.71,72l-2.39,1c.9-.35,1.85-.51,2.77-.81a14.64,14.64,0,0,0,6-3.35c2.57-2.6,3.72-5.84,4.45-9.32a60.82,60.82,0,0,0,1.36-16.31,14.61,14.61,0,0,0-1.69-6.9,10.76,10.76,0,0,0-12-5c-4,1.1-6.79,5-8.74,8.42s-3.05,7.36-5.15,10.74l1.56-2a1.4,1.4,0,0,1-.42.42l4.41-2.57-.27.08,2.66-.35L57,46l5,1.36-.27-.14,2,1.56a2.51,2.51,0,0,1-.45-.47l1.57,2a25.51,25.51,0,0,1-3.15-5.45l1,2.39a25.61,25.61,0,0,1-1.64-6.07l.36,2.66c-.1-.84-.17-1.68-.2-2.52a10.42,10.42,0,0,0-2.93-7.07,10.18,10.18,0,0,0-7.07-2.93c-5.27.24-10.19,4.4-10,10A36.6,36.6,0,0,0,44.45,55c2.29,5.29,6.24,11,12.65,11,10.58.07,11.35-12.27,16.36-18.8l-1.56,2c.33-.41.67-.81,1-1.19L65.86,51l.28,0-5-1.37.22.14-3.59-3.59a1.21,1.21,0,0,1,.31.52l-1-2.39a2.21,2.21,0,0,1,.13.63l-.35-2.66a53.29,53.29,0,0,1-.3,10.86l.36-2.65A30.65,30.65,0,0,1,55.2,58l1-2.39a4.45,4.45,0,0,1-.37.64l1.56-2a3.5,3.5,0,0,1-.49.53l2-1.57a5,5,0,0,1-.89.54l2.39-1a16.24,16.24,0,0,1-2.06.61,24.3,24.3,0,0,0-3.92,1.53,18.22,18.22,0,0,0-5,3.68,34,34,0,0,0-6,8.76L61.74,75a14.37,14.37,0,0,1,.9-3.28l-1,2.39a15,15,0,0,1,1.9-3.27l-1.56,2a16.08,16.08,0,0,1,2.4-2.41l-2,1.56q.45-.34.93-.66c4.17-2.79,6.1-7.73,4.09-12.48a9.55,9.55,0,0,0-4.09-4.79l-2.39-1a10,10,0,0,0-5.32,0l-1,.13,2.66-.35a48.15,48.15,0,0,1-9.58.71l2.65.36L50,53.82l2.39,1L52,54.65l2,1.56L53.8,56l1.57,2a2.59,2.59,0,0,1-.34-.58l1,2.39c-.79-2-1.54-4-2.3-5.93L35.46,61.6l.67,1c2.39,3.57,6.93,6,11.29,4.6a12,12,0,0,0,4.42-2.58,10,10,0,0,0,2.93-7.07L54,47l-.39-5.15a25.14,25.14,0,0,1-.15-4.59l-.35,2.66a6.56,6.56,0,0,1,.26-1.06l-1,2.39a5.17,5.17,0,0,1,.52-1l-1.56,2a4.77,4.77,0,0,1,.76-.73l-2,1.56a6,6,0,0,1,.93-.51l-2.39,1a11.75,11.75,0,0,1,2.49-.6l-2.66.36a31,31,0,0,1,7.76-.22l-2.66-.36a15,15,0,0,1,3.49.93l-2.39-1a15.11,15.11,0,0,1,1.44.75c4.5,2.67,11.17,1.16,13.68-3.59a10.18,10.18,0,0,0-3.59-13.68Z"/><path d="M50.73,39.41a11.67,11.67,0,0,1,1.45-1.36l-2,1.56A13.53,13.53,0,0,1,52.92,38l-2.39,1A15.6,15.6,0,0,1,54,38.14l-2.66.35a23.63,23.63,0,0,1,6,.11l-2.66-.36a32.56,32.56,0,0,1,7.94,2l-2.39-1a15.29,15.29,0,0,1,3,1.71l-2-1.56a12.38,12.38,0,0,1,1.89,1.87l-1.56-2a12.9,12.9,0,0,1,1.36,2.33l-1-2.39A17.07,17.07,0,0,1,63,43.37l-.36-2.66a35.34,35.34,0,0,1-.07,8.72l.36-2.66a25.91,25.91,0,0,1-1.62,6.31l1-2.39a18.1,18.1,0,0,1-2.12,3.7l1.56-2A16.64,16.64,0,0,1,59.14,55l2-1.56a14.15,14.15,0,0,1-2.82,1.69l2.39-1a13.1,13.1,0,0,1-2.1.66c-5.11,1.15-8.59,7.34-7,12.3a10.24,10.24,0,0,0,12.3,7c6.2-1.39,11.65-6,14.72-11.47s4.21-12,4.18-18.34c0-6.59-1.71-13.56-6.65-18.26-4.77-4.54-11.13-6.39-17.5-7.24a29.69,29.69,0,0,0-11.76.42,21.55,21.55,0,0,0-10.34,6.07,10.49,10.49,0,0,0-2.93,7.07,10.18,10.18,0,0,0,2.93,7.07,10,10,0,0,0,14.14,0Z"/><path class="cls-3" d="M51.56,40.8c-1.14-2.83-1.27-7.32,2.77-7.59,3.33-.22,6.75,1.09,7.23,4.73.43,3.21-1.75,6.13-4.17,8-1.61,1.24-3.33,2.28-4.54,4a6.52,6.52,0,0,0-1,6.08A2.59,2.59,0,0,0,55,57.71a2.51,2.51,0,0,0,1.74-3.07c-.55-1.35.49-2.36,1.51-3.17A39.82,39.82,0,0,0,62.59,48c2.46-2.6,4.24-6.14,4-9.8a10.08,10.08,0,0,0-5.76-8.76c-3.4-1.5-8.21-1.92-11.35.38-3.91,2.86-4.44,8.1-2.73,12.36a2.57,2.57,0,0,0,3.07,1.75,2.53,2.53,0,0,0,1.75-3.08Z"/><path class="cls-3" d="M54.53,67.82c3.22,0,3.22-5,0-5s-3.22,5,0,5Z"/><path class="cls-3" d="M69.09,72.16l-.91.39A2.8,2.8,0,0,0,67,74a1.89,1.89,0,0,0,0,1,1.85,1.85,0,0,0,.29.93l.39.51a2.53,2.53,0,0,0,1.11.64l.66.09a2.53,2.53,0,0,0,1.26-.34l.91-.4A2.67,2.67,0,0,0,72.76,75a1.89,1.89,0,0,0,0-1,2,2,0,0,0-.3-.93l-.39-.5A2.52,2.52,0,0,0,71,71.9l-.67-.09a2.54,2.54,0,0,0-1.26.35Z"/></g></svg>